<?xml version="1.0" encoding="UTF-8"?><svg id="a" xmlns="http://www.w3.org/2000/svg" viewBox="0 0 2394.12 637.52"><defs><style>.b{fill:#fff;}</style></defs><path class="b" d="M1363.22,482c-2.2,.1-4,.3-5.7,.3h-78.7c-1.7,0-3.5,.3-5.1-.7-.8-1.8,0-3.4,.4-5.1,4.9-16.4,9.6-32.8,14.6-49.2,15.3-50.6,30.7-101.2,46.1-151.8,3.1-10.1,6.3-20.2,10.9-29.7,10.8-22.1,26.1-40.1,47.7-52.4,.6-.3,1.2-.5,1.6-1,.5-.5,1.2-1.3,1.1-1.9s-.9-1.4-1.6-1.6c-2.1-.6-4.3-1.1-6.5-1.5-4.9-.7-9.8-1.3-14.7-2-.8-.1-1.6-.1-2.4-.3-4.1-1-6.3-3.9-5.8-8.1,.3-2.8,.9-5.7,1.8-8.4,7.2-23.3,14.6-46.7,21.9-70,1.9-5.9,3.7-11.9,5.5-17.8,6.8-21.2,17.8-39.9,33.6-55.7,8.5-8.5,18.5-14.7,29.6-19.2,5.9-2.4,12-3.2,18.3-3.6,1.4-.1,2.9,0,4.3,0h208.7c1.4,0,2.9-.1,4.3,.1,.9,.1,1.8,.5,2.7,.8,.5,2.8-.6,5.2-1.4,7.6-4.1,13.4-8.3,26.9-12.5,40.3-3.5,11.1-6.9,22.3-10.4,33.4-.3,.9-.6,1.8-.9,2.7-.7,2.4-2.2,3.3-4.6,3.3-1.6-.1-3.2,0-4.8,0h-154c-3.2,0-6.4,0-9.5,.8s-6.1,2-8.8,3.6c-5.5,3.3-9.1,8-10.6,14.2-1.9,7.6-3.9,15.2-5.8,22.8-3.5,14.1-6.9,28.2-10.4,42.4-.3,1.2-.6,2.5-.8,3.8-.4,2.5,.5,3.5,3,3.7,1.4,.1,2.9,.1,4.3,.1h169.4c5.6,0,6.1,.6,4.5,6.2-4.1,15.1-8.3,30.2-12.5,45.3-2.3,8.5-4.7,16.9-7.2,25.4-.5,1.8-1.1,3.7-1.9,5.4-2.5,5.5-6.7,8.9-12.6,9.9-2.8,.5-5.7,.6-8.6,.7-40.9,0-81.9,0-122.8-.1-7.7,0-15.4-.1-23,0-3,0-6.1,.1-9.1,.6-9.3,1.6-15.9,7.1-20.5,15.2-1.2,2.1-2.1,4.3-2.9,6.6-7.8,24.7-15.5,49.4-23.2,74.1-10.9,35.1-21.8,70.2-32.8,105.3-.7,1.5-1.4,3.3-2.2,5.5Z"/><path class="b" d="M2026.92,1.9c-.4,1.6-.7,3.3-1.2,5-7.5,24.6-15.1,49.2-22.6,73.8-.7,2.4-1.7,4.8-2.4,6.9-2.1,1.2-4.1,.9-6,.9-5.8,.1-11.5-.2-17.3,.1-30.2,1.4-60.4,.6-90.7,.9-1.6,0-3.2,0-4.8,.1-10.7,.9-21.4,.8-32.1,.7-12-.1-22,4.6-31.1,12-3.9,3.2-6.4,7.4-7.9,12.3-12.1,40.7-24.3,81.4-36.6,122.1-11.9,39.6-23.9,79.2-35.9,118.8-1.1,3.8-2.2,7.7-2.9,11.6-.5,3.3-.6,6.7-.3,10,.3,4.2,2.1,5.9,6.4,6.4,1.6,.2,3.2,.2,4.8,.2,14.1,.1,28.2-.2,42.2,.2,29.3,1,58.5,.6,87.8,.8,14.7,.1,29.4,0,44.1-.1,2.2,0,4.5-.4,6.7-.5,.8-.1,1.6-.1,2.4-.1,3.4-.2,4,1.2,3.2,4-3,11.3-6,22.6-8.9,33.8-4.5,16.8-8.9,33.7-13.4,50.5-.3,1.1-.6,2.2-.9,3.2-1.1,3.3-1.9,4-5.5,4.2-6.4,.3-12.8,.6-19.2,.6-28.5,.2-56.9,.2-85.4,.4-9.3,.1-18.5,.4-27.8,.7-9.4,.3-18.9,.6-28.3,.8-5.9,.1-11.8-.7-17.6-1.7-9.8-1.7-19.2-4.6-28.4-8.6-20.9-9.2-35.4-24.7-44.9-45.2-5.6-12-8.5-24.7-9.8-37.8-.9-9.1,.4-17.7,3.2-26.4,9.2-28.9,18-58,26.9-87,15.3-49.8,30.7-99.6,46-149.3,6.7-21.8,13.5-43.7,20.1-65.5,1.4-4.5,3.2-8.7,5.7-12.6,13.8-21.5,32.9-36.3,56.6-45.5,4.7-1.8,9.5-2.6,14.5-2.6,38.2,.1,76.5,0,114.7,0h91.6c1.5,.4,3.2,0,5,1.9Z"/><path class="b" d="M1005.22,484.9c-.9-2.8,.2-4.5,.8-6.3,4-13,8.1-25.9,12.2-38.9,10.5-33.2,21-66.4,31.5-99.6,14.8-46.6,29.5-93.2,44.3-139.8,9.7-30.8,19.4-61.6,29.1-92.3,.6-1.8,1.2-3.7,1.5-5.5,1-6.8-2.9-11.5-9.8-11.9-1.4-.1-2.9,0-4.3,0h-87.3c-1.4,0-2.9,0-4.3-.1-.7-.1-1.5-.4-2.3-.7-.2-2.1,.7-3.9,1.3-5.6,3.7-11,7.5-22.1,11.3-33.1l15-43.5c.2-.6,.4-1.2,.6-1.8,.6-2.1,2-3.2,4.2-3.2h104.2c1.4,0,2.9,0,4.3,.1,3.3,.3,4,1.1,3.4,4.3-.8,4.2-1.9,8.4-2.7,12.7-.4,2.2-.6,4.4-.8,6.6-.1,.6,.2,1.2,.4,2,2.8-.7,4.7-2.3,6.6-4,5.5-4.7,11.6-8.5,18.1-11.6,7.4-3.5,15-6.4,22.9-8.5,4-1,8.1-1.6,12.3-1.6h141.1c1.6,0,3.2,0,4.8,.2,1.5,.1,2.2,1.1,2,2.7-.1,.9-.4,1.9-.7,2.8-6.5,24.9-13,49.8-19.4,74.7-1.5,5.9-1.6,5.9-7.9,5.9h-90.2c-5.1-.1-9.3,1.8-13,5.2-3.8,3.6-6.6,7.8-8.7,12.5-1,2.3-1.9,4.8-2.7,7.2-3.7,11.1-7.3,22.1-10.9,33.2-10.1,31.2-20.1,62.4-30.2,93.5-14.2,43.6-28.7,87.1-42.9,130.7-11.6,35.5-23,71.1-34.5,106.7-.5,1.7-1.2,3.3-1.7,5-.5,1.8-1.8,2.5-3.6,2.6-.6,0-1.3,.1-1.9,.1-13.8,0-27.5,.1-41.3,.1s-27.2-.1-40.8-.2c-2.1,0-4.2,.1-6.2,.1-1.4-.3-2.6-.5-3.8-.7Z"/><path class="b" d="M947.22,479.7c-2.3,.1-3.8,.3-5.4,.3h-81c-3.5-.2-4.2-.6-4.9-4-1.6-8-3.2-16-4.7-24-5.7-31.3-11.3-62.6-17.6-93.7-3.6-17.7-6.8-35.5-10.1-53.2-.6-3.1-.7-6.4-1-9.5-.2-2.1-.4-4.2-.9-6.1-1.9-7.5-7.6-12.4-15.4-12.8-7.7-.4-15.3-.6-23-.9-4.9-.2-9.9-.6-14.8-.9-1.1-.1-2.1-.4-3.1-.7-1-2.1-.2-3.9,.3-5.8,3.1-10.6,6.3-21.1,9.4-31.7,3.1-10.6,6.2-21.2,9.2-31.8,1.8-6.3,4.5-11.9,9.2-16.6,4.4-4.5,9.9-6.6,16-6.3,10.7,.6,21.3,2,31.6,5.2,3.9,1.2,7.6,2.5,10.3,5.7,.7,.8,1.7,1.4,2.7,1.9,3.5,1.8,7.2,1.1,9.3-2.2,1.6-2.5,2.9-5.3,3.9-8.2,1.3-3.6,2.1-7.4,3.1-11.1,5.8-19.8,11.5-39.6,17.4-59.3,1.2-3.9,1.5-7.8,1.1-11.9-.6-5.7-3.7-8.6-9.4-8.8-1.4-.1-2.9,0-4.3,0-22.7,0-45.4,.3-68.1-.2-17.9-.4-35.8-.8-53.7-.8-8.3,0-16.6,.1-24.9,0-6.2-.1-12.4-.5-18.9-.8-.2-1.2-.6-2.1-.4-2.9,.2-1.4,.7-2.8,1.1-4.2,7.7-24.9,15.4-49.8,23-74.6,.2-.8,.4-1.5,.7-2.3,.8-2.1,2.2-3.5,4.6-3.6,2.6-.2,5.1-.4,7.7-.4,25.3-.1,50.5-.1,75.8-.3,8.3-.1,16.6-.7,24.9-.7,17.1-.1,34.2-.3,51.3-.1,15.6,.2,30.3,4.1,44,11.8,10.1,5.7,18.4,13.2,24.8,22.8,7.8,11.7,12.9,24.6,15.7,38.3,2.6,12.6,3.4,25.3,2.7,38.2-.2,3.5-1.1,6.9-2.1,10.3-8,27.3-16.1,54.5-24.1,81.8-2.9,9.8-5.5,19.7-8.3,29.5-.6,2.1-1.3,4.3-2.2,6.3-2.2,4.8-6,7.2-11.4,7.1-6.7-.1-13.4-.1-20.1-.1-1.3,0-2.6,0-3.8,.2-1.3,.1-2,1-1.9,2.3,.1,2.1,.3,4.1,.6,6.2,4.3,26.7,8.6,53.3,13,80,4.1,25.4,8.3,50.8,12.4,76.2,3.2,19.9,6.4,39.8,9.5,59.6,.1,2.1,.1,4.2,.2,6.8Z"/><path class="b" d="M404.82,5c-.8,1.8-1.4,3.3-2.2,4.6-7.2,13.6-14.4,27.1-21.5,40.7-1.8,3.4-3.4,6.9-4.9,10.4-.7,1.7-1.1,3.7-1.1,5.6,0,3.5,1.9,5.7,5.2,6.5,1.2,.3,2.5,.3,3.8,.4h12.5c1.3,0,2.6,0,3.8,.2,1.5,.2,2.2,1.1,2.4,2.6,.1,.9,.1,1.9,.1,2.9-.1,16.8-.3,33.6-.4,50.4-.2,15.3-.3,30.7-.5,46-.2,16-.5,32-.8,47.9-.1,5.1-.1,10.2-.2,15.3,0,15.5-.1,31-.1,46.5,0,2.2,0,4.5-.2,6.7-.9,13.6-.7,27.2-.7,40.7,0,12,0,24-.1,36-.1,7.5-.7,15-.8,22.5-.2,12.5-.1,24.9-.1,37.4-.1,10.9-.1,21.7-.3,32.6-.1,5.6-.4,11.2-.6,16.8,0,.8-.1,1.6-.2,2.4-.2,1-.9,1.7-1.9,1.8-1.1,.1-2.2,.2-3.3,.2-13.7,.3-27.5,.6-41.2,.8-11.8,.2-23.6,.4-35.5,.5-1.4,0-2.9-.1-4.3-.3-1.5-.2-2.3-1.1-2.5-2.5s-.2-2.9-.2-4.3c.1-14.2,.2-28.5,.3-42.7,.2-15.5,.4-31,.5-46.5,.1-13.3,.2-26.5,.2-39.8s0-26.5,.5-39.8c.4-11.3,.1-22.7,.3-34,.2-16,.7-32,.9-47.9,.2-11.7,.2-23.3,.2-35,0-1.8,0-3.5-.4-5.2-.7-3.5-3.3-4.7-6.4-3.2-1,.5-1.9,1.1-2.8,1.8-2.6,2.1-4.8,4.6-6.6,7.6-10.2,17.3-20.5,34.7-30.8,52-.4,.7-.8,1.4-1.2,2.1-1.1,1.8-2.7,2.7-4.7,2.8h-101.7c-1.4,0-2.8-.1-4.6-.2,.2-1.1,.2-2.1,.7-2.9,1.4-2.5,2.8-5,4.3-7.5,19.4-32,38.9-63.9,58.3-95.9,21-34.6,41.9-69.1,62.9-103.7,5.9-9.7,11.8-19.4,17.7-29.1,.6-1,1.2-1.9,1.8-2.9,.9-1.4,2.3-2.2,4-2.3,1.1-.1,2.2-.1,3.4-.1h92.6c1.9,.4,3.8,.1,6.4,1.1Z"/><path class="b" d="M2214.72,188.7c-.6,2.3-1.1,4.3-1.8,6.2-8.7,25.9-17.4,51.8-26.2,77.7-1.9,5.5-2.3,5.8-8.3,5.8h-66.7c-2.1,0-4.2,0-6.2,.1-7.6,.3-13.4,3.8-17.4,10.2-2.1,3.3-3.6,6.8-4.7,10.5-12,38.4-24.1,76.8-36.1,115.3-5.9,19.1-11.8,38.2-17.7,57.2-.6,1.8-1.3,3.6-1.9,5.4-.7,2.1-2.3,3-4.4,3h-76.8c-1.6,0-3.2-.1-4.8-.4-1-.2-1.7-1-1.6-2.1,.2-1.7,.6-3.5,1.1-5.1,5.7-18.8,11.5-37.6,17.2-56.4,8.6-28.4,17.2-56.9,25.9-85.3,7.2-23.7,14.7-47.3,22-71,2.1-6.9,5.2-13.4,9.1-19.5,.3-.4,.5-.8,.8-1.2,13.5-20.2,11.5-17.6,27.7-32.8,3.6-3.4,7.4-6.6,11-10,1.1-1,2.7-1.9,2.3-3.8-.9-1.2-2.2-1.2-3.5-1.2-2.9,0-5.8,.1-8.6-.1-2.4-.2-4.8-.5-7.1-1.1-5.2-1.5-7.2-4.9-6-10.2,.5-2,1-4,1.7-6,17.2-54.4,34.3-108.8,51.5-163.1,.5-1.7,1.2-3.3,1.7-5,.8-2.5,2.5-3.6,5.1-3.5h1c8.3,.1,16.6-.1,24.9,.5,5.9,.5,11.8,.3,17.7,.4,9.6,.1,19.2,.2,28.8,.3,1.7,0,3.5,.2,5.2,.5,1.2,.2,2,1.3,1.8,2.5-.4,1.9-.8,3.7-1.4,5.6-6,19.9-12,39.8-18,59.6-10.5,34.5-21.1,69.1-31.6,103.6-.9,2.9-1.7,5.8-2.4,8.8-.5,2.2,.5,3.3,2.7,3.6,1.1,.1,2.2,.1,3.4,.1,7.2-.3,14.4-.6,21.6-.9,1.1,0,2.2-.1,3.4-.1h53.3c2.9,0,5.7,.3,8.6,.7,1.1,.1,2.3,.7,3.7,1.2Z"/><path class="b" d="M470.42,483.7h-40.3c-1.6,0-3.2-.2-4.8-.4-1.1-.2-1.7-1.1-1.6-2.1,.2-1.7,.6-3.5,1.1-5.1,4-12.3,8-24.6,11.9-36.9,15-47.5,30-95,45-142.6,14-44.2,27.9-88.4,41.9-132.5,16.3-51.5,32.6-102.9,49-154.4,.4-1.4,.9-2.7,1.3-4.1,.6-2.1,2-3.2,4.2-3.1,3.7,0,7.4-.1,11,.1,21.1,1,42.2,.7,63.3,.9,2.9,0,5.8,.1,8.6,.4,2.1,.2,2.8,1.3,2.3,3.3-.9,3.4-1.9,6.8-3,10.1-10.7,34.8-21.5,69.6-32.2,104.4-10.6,34.5-21.1,69.1-31.7,103.6-11.2,36.3-22.4,72.7-33.6,109-14.7,47.8-29.4,95.6-44.1,143.4-1.6,5.1-.5,6.2-8.3,6.1-13.1-.2-26.5-.1-40-.1Z"/><path class="b" d="M2394.12,5.8c-.5,1.8-.9,3.5-1.4,5.2-10.2,33.6-20.4,67.3-30.5,100.9-16.6,54.9-33.2,109.8-49.7,164.7-19.8,65.8-39.5,131.6-59.2,197.4-.6,1.8-1.1,3.7-1.7,5.5-.5,1.7-1.7,2.6-3.5,2.7-1.1,0-2.2,.1-3.4,.1h-78.7c-1.7,0-3.5,.4-5.4-.8,.1-.8,0-1.7,.2-2.6,1.1-4,2.2-8,3.5-12,22.1-69.1,44.2-138.2,66.3-207.3,12.8-40,25.2-80.2,38-120.2,13.6-42.8,27.4-85.5,41.1-128.3,.4-1.4,.9-2.7,1.4-4.1,.6-1.7,1.8-2.6,3.6-2.7,1.1-.1,2.2-.1,3.4-.1h70.1c1.1,0,2.3-.1,3.3,.2,.7,.2,1.5,.8,2.6,1.4Z"/><path class="b" d="M679.42,484.9c-1.3,.1-2.9,.3-4.5,.3h-85.9c-1.4,0-2.9,.4-4.4-.9,.5-2,.9-4.2,1.5-6.3,23.6-76.5,47.1-153,70.7-229.5,11.4-36.9,22.7-73.9,34.1-110.9,.8-2.6,1.8-5.1,2.5-7.3,2.3-1.4,4.4-1.3,6.4-1.3h81.1c1.4,0,2.9,0,4.3,.2,1.3,.2,2,1.1,1.8,2.4-.3,1.7-.8,3.4-1.3,5.1-13.5,44.8-27.1,89.6-40.7,134.4-11.2,36.8-22.5,73.7-33.6,110.5-9.8,32.3-19.5,64.5-29.2,96.8-.6,2.2-1.1,4.4-2.8,6.5Z"/><path class="b" d="M10.72,482.5c1-1.8,1.9-3.5,2.8-5.1,13.9-24.1,27.9-48.1,41.8-72.1,11.9-20.6,24-41.1,35.5-61.9,6.8-12.2,16-21.9,27-30.1,12.9-9.7,27.1-16.8,42.1-22.6,2.7-1.1,5.5-1.5,8.4-1.5h112.7c5.1,0,5.6,.5,5.6,5.4v75.3c-.2,2.3-.9,3.1-3.2,3.4-1.6,.2-3.2,.1-4.8,.1h-71.9c-2.2,0-4.5,0-6.7,.2-9.7,.6-17.5,4.8-23,12.8-12.7,18.8-25.2,37.8-37.7,56.7-8.2,12.4-16.4,24.8-24.6,37.2-1.6,2.4-3.5,3.6-6.3,3.5H16.82c-1.9-.1-3.9,.3-6.1-1.3Z"/><path class="b" d="M1113.62,636.5c-10,1-19.4,1-28.9-.1-3.5-8.7-5.9-17.7-9.3-26.6-6.1-1.3-12.3-.4-18.5-.5-6-.1-12.1-.4-18.1,.3-2.4,3-3.7,6.2-5.2,9.4-2.1,4.5-4.2,9-5.9,13.6-1.3,3.3-3.4,4.7-6.9,4.6-15.4-.1-30.7-.1-46.1-.2-.8,0-1.6,0-2.4-.2-1.1-.2-2-1.2-1.9-2.4,.3-5.6,.7-11.2,.9-16.7,.3-8.9,.6-17.9,.8-26.8,.1-4.8,.1-9.6,.1-14.4,0-1.6,.1-3.1-.5-4.5-1.2-.3-1.8,.3-2.1,1-.6,1.3-1.1,2.6-1.6,4-5.7,17.3-11.4,34.6-17.1,51.9-.8,2.4-1.7,4.8-2.5,7-6.3,1.8-19.2,1.8-24.7,.2-.4-1.7-.8-3.6-1.2-5.4-4.1-17.6-8.2-35.2-12.4-52.7-.5-2-1-4-1.6-6-.1-.3-.8-.6-1.1-.6-.4,0-1,.4-1.1,.7-.3,1.6-.5,3.1-.6,4.7-.4,6.4-.8,12.8-1.1,19.1-.6,11.2-1.2,22.3-1.8,33.5-.1,1.6,0,3.2-.2,4.8-.2,1.7-1,2.7-2.7,2.8-6.5,.5-13.1,.2-19.2,.2-1.5-1.8-1.5-3.3-1.3-4.9,1.3-12.4,2.7-24.8,3.8-37.2s1.7-24.9,2.5-37.3c.2-3.2,.4-6.4,.7-9.6,.2-1.7,.7-3.4,1.1-5.4,1.5-.2,2.8-.6,4.2-.6,10.1,0,20.1,.1,30.2,.1,.6,0,1.2,.2,1.8,.3,1.7,1.4,2,3.3,2.4,5.2,2.8,12.8,5.6,25.6,8.5,38.4,.7,3,1.3,5.9,2,8.9,.3,1.1,.6,2.2,1,3.2,.4,.9,1.8,.9,2.3,0,.4-.7,.8-1.4,1.1-2.1,.5-1.2,.9-2.4,1.3-3.6,4.6-13.6,9.2-27.2,13.8-40.9,.7-2.1,1.4-4.3,2-6.4,.5-2,1.8-2.9,3.8-3,.3,0,.6-.1,1-.1h31.7c.8,0,1.5,.3,2.1,.4,1.1,1.2,1.1,2.5,1,3.8-.2,1.7-.6,3.5-.6,5.2-.9,24.9-2,49.8-2,74.8,0,1.3,0,2.6,.2,3.8,0,.4,.6,.8,1,.9,.4,.1,1,0,1.3-.3,.6-.5,1.1-1.2,1.5-1.9,1.4-2.3,2.7-4.7,4-7.1,13.1-24.9,26.2-49.8,39.3-74.7,.1-.1,.2-.3,.2-.4,1.3-3.7,4-4.8,7.9-4.7,8,.3,16,.1,24,.1,1.6,0,3.2,.1,5.1,.2,1,2.2,2.1,4.3,2.9,6.5,10.1,27.9,20.3,55.9,30.4,83.8,.1,1.2,.3,2.3,.7,3.9Zm-43.6-46.3c-.1-1.6,0-2.8-.3-3.8-2.2-7-4.5-14-6.7-21-.1-.5-.4-.9-.6-1.3-1-1.9-2.6-2-3.7-.3-.2,.3-.3,.5-.5,.8-.3,.6-.6,1.1-.8,1.7-3,6.3-6,12.7-9,19-.6,1.4-1.8,2.7-.9,4.7,.5,.2,1,.6,1.6,.6,5.4,.1,10.8,.2,16.3,.3,1.3,0,2.7-.4,4.6-.7Z"/><path class="b" d="M1575.32,389.6c.8,1.6,.2,3.1-.3,4.6-7.6,24-15.2,48.1-22.8,72.1-1,3.2-2.1,6.4-3.2,9.5-.9,2.8-2.6,4.1-5.6,4.1-7.8,.1-15.6,.6-23.5,.7-27.2,.2-54.3,.3-81.5,.5-6.5,.1-13.1,.6-19.6,.8-4.3,.2-8.6,.2-12.9,.2-1.4,0-2.9,.1-4.1-.8-.8-2.1,.2-3.8,.8-5.6,3.6-10.6,7.3-21.1,10.9-31.7,5.9-17.2,11.6-34.5,17.4-51.7,1.8-5.2,2.2-5.7,7.5-5.3,13.1,.9,26.2,.6,39.3,.7,14.7,0,29.4-.2,44.1,.2,16.5,.4,32.9,.8,49.4,.8,1.3,.2,2.8,0,4.1,.9Z"/><path class="b" d="M477.72,542.6c1.3,2.1,2.7,4.3,3.9,6.5,8.3,15.1,16.5,30.3,24.8,45.5,1.1,2.1,2.3,4.2,3.5,6.3,.3,.6,.6,1.2,1,1.6,.4,.4,1.1,.8,1.6,.7s1.1-.7,1.3-1.2c.3-.9,.3-1.9,.4-2.8,.5-10.9,.9-21.7,1.3-32.6,.2-6.1,.4-12.1,.6-18.2,.1-1.7,.3-3.5,.5-5,5.1-1.8,16.9-1.9,24.6-.2,1.2,2.2,.8,4.6,.5,6.9-1.7,12.9-1.7,25.8-2.5,38.7-.5,8.6-1,17.2-1.5,25.8-.3,4.8-.4,9.6-.7,14.4-.1,2.4-.4,4.8-.7,7.4-1.4,.2-2.6,.7-3.8,.7-8.8,.1-17.6,0-26.4,.1-2.1,0-3.6-.7-4.7-2.6-1.4-2.7-3-5.3-4.5-7.9-8.5-15-17-30.1-25.5-45.1-.5-1-1.1-2-1.8-2.8-.4-.4-1.2-.9-1.6-.8-.6,.2-1.4,.9-1.6,1.5-.4,1.2-.5,2.5-.6,3.8-.3,7.7-.6,15.3-.8,23-.3,8.6-.5,17.3-.8,25.9,0,1.4-.3,2.8-.4,4.1-2,1.3-3.9,1-5.8,1-14.7,.1-29.4,.1-44.1,.2-1.3,0-2.6-.1-3.8,0-3,.2-4.7-1.2-5.6-4.1-1.8-6-3.8-11.9-5.6-17.8q-1.8-5.9-7.9-5.9c-8.5,0-16.9-.1-25.4-.1h-2.4c-2.3,.1-3.9,1.2-5,3.2-.5,1-.9,2-1.4,3-2.4,5.2-4.7,10.5-7.1,15.7-.8,1.7-1.7,3.4-2.6,5.2-1.4,.2-2.7,.7-3.9,.7-8.2,0-16.3,0-24.5-.1-.4,0-.8-.4-1.5-.7,.1-.7,.2-1.5,.4-2.2,.4-1,1-2,1.5-3,15.1-27.4,29.8-55.1,44-83,.9-1.8,2-3.6,2.9-5.3,4.7-.9,29.2-1,35-.1,.5,1.1,1.1,2.4,1.6,3.7,4.7,13.1,9.4,26.2,14.2,39.2,5.5,15,11.1,30,16.6,45,.4,1,.8,2.1,1.5,3,.5,.6,1.5,.8,2.4,1.3,1.2-2.3,1.5-4.5,1.6-6.8,1.5-20.2,2.7-40.5,3.2-60.8,.1-2.6-.1-5.1,.1-7.7,.3-5.1,.6-10.2,1-15.3,0-.4,.3-.9,.6-1.6,.8-.2,1.7-.5,2.6-.5h28.8c.8-.2,1.3-.1,2.5,.1Zm-85.5,47.6c-.3-1.6-.5-3-.9-4.3-2.2-6.8-4.4-13.7-6.6-20.5-.3-1-.6-2.3-1.8-2.6-1.5-.3-2.3,.9-2.9,2-.3,.5-.6,1.1-.9,1.7-2.7,5.8-5.4,11.6-8.1,17.3-.5,1.2-1.1,2.3-1.4,3.6-.2,.8,0,1.8,0,2.7,2.1,1,4.2,.9,6.3,.9,5.2-.1,10.7,.4,16.3-.8Z"/><path class="b" d="M1574.22,616.9c2,1.4,4.1,1.2,6.2,1.1,10.2,0,20.5-.1,30.7-.1,1.7,0,3.5-.3,5.4,.8,.1,.7,.5,1.6,.5,2.5-.2,8-.7,12.1-1.9,15-6.6,1.4-95.9,1.4-104.8-.1-2.9-8.6-5.9-17.3-8.9-26.2-1.2-.2-2.3-.5-3.4-.5h-31.7c-.5,0-.9,.1-1.6,.2-1.7,1.6-2.7,3.8-3.6,6-2.2,5-4.4,10-6.6,14.9-.9,2-2,3.9-3.1,6.1-20.3,.8-40.4,.9-60.7,.1-.3-1.3-.8-2.3-.7-3.4,.1-3.4,.3-6.7,.5-10,.1-1.6,.4-3.2,.5-4.8,.7-15.6,1.5-31.3,2.1-46.9,.3-6.7,.1-13.4,.2-20.1v-4.3c.1-4.5,.5-4.9,5-4.9,6.7-.1,13.4,0,20.1,0,1.3,0,2.5,.2,4,.4,.1,1,.3,1.9,.3,2.8-1.6,20.6-1.8,41.2-2.6,61.8-.3,7.2-.5,14.4-.7,21.6,0,1.3,.1,2.5,.3,3.8,.2,1,1.6,1.4,2.3,.7,.6-.6,1.1-1.2,1.5-1.8,1.2-1.9,2.3-3.9,3.3-5.8,14.1-25.8,27.8-51.8,41.1-78,.8-1.6,1.7-3.1,2.4-4.5,5.4-1.2,26.5-1.4,34.7-.4,1.9,1.7,2.3,4.1,3.1,6.3,4.9,13.7,9.6,27.4,14.6,41.1,4.9,13.5,10,26.9,15.1,40.4,.6,1.5,1.3,2.9,2.1,4.3,.5,.9,1.9,.7,2.3-.2,.3-.7,.5-1.5,.6-2.3,.7-7.3,1.4-14.6,1.9-22,1.6-20.7,2.6-41.5,3.1-62.2,0-1.7-.2-3.5,.9-5.2,.4-.1,.8-.5,1.2-.5,7.7-.1,15.3-.1,23-.2,1.1,0,2.2,.2,3.1,.3,1.7,1.6,1.3,3.4,1.1,5.1-1.5,14.6-2.3,29.3-2.7,44-.2,6.4-.7,12.8-1,19.1,.1,2,.1,4.1,.8,6Zm-90-26.2v.4c3.3-.2,6.7-.3,10-.5,1.2-.1,1.9-1.2,1.8-2.4-.1-.8-.3-1.6-.6-2.3-2.1-6.4-4.1-12.8-6.2-19.1-.3-.9-.6-1.8-1.1-2.7-.9-1.9-2.5-1.9-3.6-.1-.3,.5-.6,1.1-.9,1.7-2.9,6.2-5.9,12.4-8.8,18.6-.5,1-.9,2.1-1.1,3.1-.5,2,.3,3.2,2.3,3.3,2.7,.1,5.5,0,8.2,0Z"/><path class="b" d="M49.02,542.7c5-1,30-.9,34.9,.1,.8,1.8,1.7,3.9,2.4,5.9,7,19.4,13.9,38.8,20.9,58.2,2.8,7.7,5.8,15.2,8.7,22.8,.6,1.5,1,3,2.4,4.1,.7,.5,1.8,.4,2-.4,.5-1.7,.9-3.4,1.1-5.1,.4-4,.7-8,1-11.9,1.4-21.2,2.6-42.4,2.2-63.7,0-2.1,0-4.2,.1-6.2,.1-3.7,.6-4.2,4.1-4.3,3.8-.1,7.7-.2,11.5-.2,10.9,0,21.7,.1,32.6,.1,7.3,0,14.3,1.1,21.2,3.5,13.8,4.8,22,14.5,24.2,28.9,1.5,9.9,1.2,19.8-1.6,29.5-3.9,13.5-12.2,22.9-25.3,28.1-6.2,2.4-12.6,3.6-19.1,4.2-5.4,.5-10.9,.8-16.3,.8-20.9,.1-41.9,0-62.8,0h-3.2c-1.9-1.4-2.2-3.4-2.8-5.1-2-5.7-3.8-11.5-5.7-17.3l-1.6-4.8c-1-.2-2.1-.6-3.1-.6-9.6-.1-19.2-.1-28.8-.2-.3,0-.6,.1-1,0-3.3-.3-5.3,1.1-6.6,4.2-2.7,6.5-5.9,12.7-8.6,19.2-1.3,3.1-3.2,4.5-6.5,4.5-7.4-.1-14.7,0-22.1-.1-1.1,0-2.1-.4-3.2-.6-.2-2.2,1-3.6,1.8-5.1,5.4-10,10.9-19.9,16.2-29.9,9.6-18.1,19.1-36.2,28.6-54.3,.8-1.3,1.6-2.8,2.4-4.3Zm100.6,74.1c1.7,1.4,3.3,1.3,4.9,1.3,1.9,0,3.8-.1,5.8,0,4.9,.1,9.5-1,14-2.8,6.5-2.5,10.9-7,13.5-13.4,3.3-8.1,3.8-16.5,1.7-24.9-2.1-8.3-7.3-13.6-15.8-15.5-6.9-1.5-13.9-1.4-21-.7-1.1,2.2-1.3,4.5-1.4,6.7-.7,15.3-1.4,30.6-2,46-.1,1.2,.2,2.4,.3,3.3Zm-76-26.3c1.2-2.3,.4-3.8-.1-5.3-2.1-6.4-4.2-12.7-6.3-19-.3-.9-.6-1.8-1.1-2.7-.5-1.1-2-1.2-2.7-.2-.6,.9-1.2,1.9-1.7,2.9-1.3,2.7-2.6,5.4-3.9,8.2-1.8,3.9-3.7,7.8-5.5,11.7-.6,1.3-1.3,2.6-.1,4.4,6.9,.8,14.2,.7,21.4,0Z"/><path class="b" d="M1992.72,637.2c-4.2,0-8.3,.1-12.5,0-1.9,0-3.9-.2-5.7-.6-18.1-4.3-30.9-14.6-35.5-33-6-23.9,5.4-47,26.7-56.7,8.2-3.7,16.8-6,25.9-6.4,8-.3,16,.1,23.8,2,6.7,1.7,12.9,4.6,18.6,8.6,8.2,5.9,12.9,14.1,15.7,23.5,4.6,15.8,1.5,30.3-7.6,43.8-1,1.4-2.2,2.7-3.4,4-6.3,7.3-24.9,16.1-36.3,14.8-3.3-.4-6.5-.1-9.7,0,0-.1,0,0,0,0Zm-26.4-45.9c0,.5-.1,1.6,0,2.7,1,12.7,7.8,20.3,17.7,23.7,4,1.4,8.1,1.7,12.3,1.3,12.2-1.1,20.4-7.6,24.7-18.9,2.5-6.4,2.6-13.1,1.2-19.8-2.6-11.7-11.1-19.3-22.9-20.5-2.1-.2-4.2-.3-6.2-.1-9.7,.8-17.3,5-22.4,13.5-3.2,5.5-4.7,11.3-4.4,18.1Z"/><path class="b" d="M739.32,636.8c0-2.3-.1-4,0-5.8,.2-2.5,.6-5.1,.8-7.6,1-14.3,2.4-28.7,2.4-43.1,0-.5,0-1,.1-1.4,1.3-9.7,.6-19.5,.8-29.2,0-2.2,.2-4.4,.3-6.8,1.3-.3,2.4-.6,3.4-.6,16.5,0,32.9,0,49.4,.2,6.6,.1,12.9,2,19,4.6,11.9,5,18.7,14,21.1,26.5,2,10.1,1.4,20-1.3,29.9-3.9,14.3-12.9,23.9-26.8,29.1-5.7,2.1-11.7,3.4-17.7,3.8-10.8,.8-21.7,1-32.6,.7-4.5-.1-9,0-13.4,0-1.6-.1-3.2-.2-5.5-.3Zm31.6-75.9q-1.3,2.7-1.3,5.2c-.1,4.3-.2,8.6-.3,12.9-.2,4-.5,8-.7,12-.2,4.1-.4,8.3-.6,12.4-.1,3.8-.3,7.7-.3,11.5,0,2,.9,2.8,2.9,3.1,.3,0,.6,.1,1,.1,5.1,.3,10.2,.1,15.3-1,9.6-2,16.6-7.3,19.9-16.8,2.7-7.7,3.1-15.7,1.1-23.6-2.1-8-7.3-13.3-15.6-15.2-6-1.4-12-1.4-18.1-1-1.3,0-2.4,.3-3.3,.4Z"/><path class="b" d="M1830.22,582c1.3,2.1,1.3,3.8,1.1,5.6-1.5,13-1.3,26.2-2.1,39.2-.2,2.5-.3,5.1-1.2,7.7-1,.3-2,.9-3.1,1-5.4,.6-10.8,1.4-16.2,1.6-10.7,.2-21.4,0-32.1,.1-9.2,0-17.6-2.6-25.4-7.4-9.4-5.8-14.6-14.6-16.9-25.1-2.3-10.6-1.5-21,2.5-31.1,4.6-11.4,12.1-20.1,23.3-25.6,11.6-5.7,23.9-7.8,36.7-7.7,9,.1,17.8,1.6,26.6,3,3.3,.5,3.5,.9,4.2,4.3,.8,4.4,.9,11.7,.1,15.7-1.5,.7-3,.1-4.6-.2-4.8-1-9.7-2.2-14.6-2.9-8-1.1-16-.9-23.7,1.5-7.1,2.2-13.1,5.9-17.4,12.1-3.2,4.6-4.8,9.8-5.4,15.2-.6,4.5-.4,8.9,.7,13.3,2.1,8.3,7.1,13.7,15.4,16.1,7.3,2.1,14.5,1.8,21.8,0,2-.5,3.1-1.6,3.1-3.7v-13c-3.4-2.5-7.9,.2-11.5-2.1-.2-.7-.5-1.5-.5-2.3,0-3.8-.1-7.7,.1-11.5,.2-3.6,.7-4,4.4-4.1,1.6-.1,3.2,0,4.8,0h24c1.9,.1,3.8,.2,5.9,.3Z"/><path class="b" d="M2064.22,542.7c9.4-.8,18.1-.8,27.1-.1,.3,1.2,.8,2.2,.8,3.2,0,2.1-.1,4.1-.3,6.2-.5,6.4-1.1,12.7-1.5,19.1-.5,8.4-1,16.9-1.2,25.4-.1,3.5,.4,7,.9,10.5,1.1,6.7,4.9,10.3,11.8,11.4,3.5,.6,7,.5,10.5,0,5.3-.8,9.2-3.7,11.2-8.6,.9-2.2,1.6-4.6,1.9-6.9,.9-8.4,1.6-16.9,2.2-25.3,.5-8.8,.7-17.6,1.1-26.3,.1-2.7-.1-5.4,1-8.2,.7-.2,1.4-.6,2.2-.6h23.5c.8,0,1.5,.2,2.5,.4,.6,3.3,.4,6.5,.2,9.6-.5,6.5-1.2,13-1.6,19.6-.5,8.3-.8,16.6-1.1,24.9-.2,5.4-.8,10.8-1.8,16.2-1.3,6.8-4.9,12.1-10.3,16.2-6.7,5.1-14.3,7.8-22.7,8-8.9,.2-17.9,.1-26.8,0-4.2,0-8.3-.4-12.3-1.7-6.7-2.2-12.3-6.1-16.7-11.6-2.7-3.3-3.9-7.4-4.4-11.5-.4-3.1-.5-6.4-.3-9.5,1.4-16.9,2.5-33.8,3.3-50.7,.1-3.2,.5-6.2,.8-9.7Z"/><path class="b" d="M1320.32,636.5c-1.5,.3-2.5,.6-3.6,.7-5.2,.4-19.5,0-22.7-.5-1.1-1.8-.9-3.8-.8-5.9,.6-7.3,1.2-14.7,1.7-22,.2-2.2,.3-4.5,.4-6.7,.5-13.1,1.1-26.2,1.6-39.3,.2-5.3,.2-10.5,.3-15.8,.1-4.3,.7-4.9,5.1-4.9,14.4,0,28.8-.1,43.2-.1,6.4,0,12.8,.7,19,2.2,4.3,1,8,3.2,11.2,6.2,.8,.7,1.6,1.6,2.1,2.6,3,5.8,4.8,11.8,3.3,18.5-2,8.8-6.6,15.5-14.8,19.6-1.6,.8-3.2,1.5-4.8,2.2-1.4,.6-1.9,1.7-1.7,3.1,.2,1.4,.7,2.8,1.2,4.1,4.3,9.8,8.6,19.6,12.9,29.4,.8,1.9,2,3.7,2,5.8-4.3,1.7-19.8,2.1-28.3,.7-.4-.8-1.1-1.7-1.4-2.8-5.2-14.8-10.3-29.6-15.5-44.4-.4-1-.6-2.1-.9-3.5,.9-.3,1.8-.8,2.6-.9,2.4-.2,4.8-.1,7.2-.3,4.9-.3,8.9-2.5,11.9-6.3,4.5-5.7,2.6-13.6-4.1-16.3-1.6-.7-3.4-1.3-5.1-1.3-5.6-.2-11.2-.1-16.8-.1-.5,0-.9,.3-1.3,.4-1.2,1.2-1.1,2.7-1.1,4.1-.3,6.5-.6,13.1-.9,19.6-.4,9.6-.6,19.2-1.2,28.7-.4,6.2-.7,12.4-.6,18.7,.3,1.5,0,2.8-.1,4.5Z"/><path class="b" d="M1926.02,636.4c-9.8,1.1-19,1.1-28.2,.3-1.7-1.5-2-3.5-2.6-5.3-3-8.6-5.8-17.2-8.8-25.8-1.6-4.7-3.4-9.3-5-14-.6-1.6-.9-3.4-1.3-4.8,.9-1.6,2.1-1.8,3.4-1.8,2.1-.1,4.2-.1,6.2-.3,4.6-.5,8.6-2.5,11.5-6.2,6.1-7.5,.7-16.7-6.7-17.6-6.6-.8-13.4-.6-19.8-.1-1.6,1.4-1.5,3.1-1.6,4.6-.3,5.6-.5,11.2-.8,16.8-.8,13.2-1.2,26.5-1.4,39.8-.1,3.7-.2,7.3-.4,11-.1,1.1-.3,2.2-.5,3.4-1.2,.3-2.2,.7-3.3,.8-6.6,.5-19.7,.1-23.1-.6-1.1-1.4-1-3.2-.8-4.9,2.2-13.8,2.2-27.7,3-41.6,.8-13.9,.9-27.8,1.3-41.7,.1-1.7,.2-3.5,.3-5.5,1.4-.2,2.6-.6,3.9-.6,12.6-.1,25.3-.1,37.9-.2,3.2,0,6.4,.1,9.6,.1,5.3,0,10.5,.7,15.6,2.2,2.3,.7,4.5,1.6,6.6,2.7,4.6,2.4,7.6,6.2,9,11.3,2.5,8.6,1.5,16.7-3.7,24.2-2.4,3.5-5.6,6.1-9.4,8-1.9,.9-3.7,1.8-5.5,2.8s-2.2,2.1-1.6,4c.7,2.1,1.5,4.2,2.4,6.3,3.7,8.5,7.5,16.9,11.3,25.4,.6,1.5,1.3,2.9,1.9,4.4,.2,.7,.3,1.5,.6,2.9Z"/><path class="b" d="M1277.52,617.7c.3,.6,.6,1,.6,1.4,.1,1.3,.2,2.6,.1,3.8-.4,4.4-.8,8.9-1.2,13.1-2.1,1.2-4,1.1-5.9,1.1h-64.7c-1.7,0-3.5,.1-5.1-.8-1.1-1.3-.8-2.8-.6-4.2,1.7-13,2-26.1,2.6-39.2,.5-10.7,.5-21.4,1.1-32.1,.3-5.1,.8-10.2,.8-15.3,0-.9,.4-1.8,.7-2.8,1.1-.1,2-.4,2.9-.4,22.4-.5,44.7-.9,67.1-.3,1.6,0,3.2,.3,4.8,.4,.3,.7,.8,1.2,.9,1.7,.3,5.4-.5,10.8-.5,15.8-2.1,1.8-4.1,1.3-6,1.3h-35c-1.7,0-3.5,.1-5,.2-2.5,4.8-3,10.6-1.6,16.6,1.5,1.1,3.3,.7,5,.7h28.3c1.6,0,3.2,.1,4.9,.1,.2,1.3,.7,2.3,.6,3.4-.2,4.8-.6,9.6-1,14.3-.2,1.8-.9,2.4-2.8,2.6-1.4,.1-2.9,.1-4.3,.1h-27.3c-1.7,0-3.5-.3-5.4,1-1.5,5.4-1.8,11-.4,16.6,1.7,1.4,3.5,1.2,5.2,1.2,9.6,0,19.2,0,28.8-.1,2.6,0,5.1-.3,7.7-.4,1.6,.1,3.2,.2,4.7,.2Z"/><path class="b" d="M723.02,636.7c-22.9,.8-45.6,.1-68.2,.5-1.8,0-3.5-.1-5.3-.2-.6-.1-1.2-.4-1.6-.6-.2-.3-.3-.5-.3-.6-.1-.3-.2-.6-.2-.9v-1.9c2.4-29.8,3.4-59.6,4.3-89.4,1.8-1.5,3.8-1.3,5.6-1.3h40.8c8.5,0,16.9-.1,25.4,0,1.4,0,2.8,.2,4.1,.4,1.2,3.8,.9,10.8-.5,17.9-1.5,1.4-3.5,1-5.4,1h-34.5c-2.1,0-4.1,.1-6.2,.2-1.3,1.9-1.1,3.8-1.3,5.7-.3,1.7-.4,3.5-.6,5.2-.3,1.9-.4,3.8,.8,5.8,2.2,.8,4.6,.6,6.9,.6h28.3c1.1,0,2.2,.1,3.5,.2,.2,.9,.7,1.7,.6,2.4-.6,7.2,.5,11.5-1.7,17.1-1.5,1.2-3.3,.8-5.1,.8h-28.3c-1.7,0-3.5,.1-5.2,.2-.5,1.1-1.1,2-1.2,2.8-.3,4.1-.6,8.3-.7,12.4-.1,2.1,.9,2.9,2.8,3.1,1.1,.1,2.2,.1,3.4,.1,12.6-.1,25.3,.4,37.9-.5,.9-.1,1.9,0,3,0,.3,1.1,.8,1.9,.8,2.8-.3,5.1-.3,10.4-1.9,16.2Z"/><path class="b" d="M285.32,636.4c-11,1-21.8,1.1-32.7,.3-.8-2.1-1.6-3.8-2.2-5.6-10-29-20-57.9-29.9-86.9-.1-.4,.1-.9,.2-1.4,3.6-.8,20.2-.9,27.3-.2,1.5,1.3,1.8,3.3,2.4,5.1,5.4,17.9,10.8,35.8,16.2,53.6,.7,2.4,1.5,4.9,2.3,7.3,.2,.8,.6,1.5,1,2.2,.7,1.2,2.5,1.2,3.2,0,.5-.8,.9-1.7,1.3-2.6,1.3-2.8,2.5-5.5,3.7-8.3,5.1-11.4,10.2-22.7,15.3-34.1,2.7-6,5.3-12,7.9-18,.5-1,.9-2,1.4-3.1,.8-1.8,2.1-2.7,4.1-2.7,5.6,0,11.2-.1,16.8-.1,2.7,0,5.4,.2,7.9,.2,1.1,1.9,0,3.1-.6,4.3-4.3,8.6-8.6,17.1-12.9,25.7-10.2,20.1-20.4,40.2-30.5,60.2-.7,1.4-1.3,2.6-2.2,4.1Z"/><path class="b" d="M2174.32,543.1c1.7-1.1,3.3-.9,4.9-.9h41.7c4.8,0,9.5,.6,14.1,2.2,8.3,2.8,13.2,8.5,15.2,17,3.6,15.1-4.4,30.7-19.2,36.5-7.5,2.9-15.2,3.2-23.2,2.1-1.6-5.4-3-10.6-3.9-16.1,1-.4,1.8-.9,2.7-1,1.1-.2,2.2-.1,3.3-.1,3.3,.2,6.2-1,9-2.8,1.6-1,2.7-2.3,3.3-4,.5-1.8,1-3.7,1.2-5.6,.3-4.8-2.1-9.4-8.7-9.9-5.8-.4-10.3-.4-15,.8-.5,3.5-1.2,7-1.3,10.7-.4,15.5-.8,31-1.2,46.5-.1,2.2-.4,4.4-.5,6.7-.1,1.6-.2,3.2-.3,4.8-.1,2.1-.2,4.1-.2,6.5-1.6,.3-3,.6-4.4,.6-6.2,0-12.5,0-18.7-.2-2.6,0-3.5-1-3.1-3.6,1.8-11.7,1.6-23.6,2.2-35.4,.6-13.7,1-27.5,1.5-41.2,.1-2.6,0-5.1,.1-7.7,.1-2,.4-4,.5-5.9Z"/><path class="b" d="M634.92,616.7c0,1.4,.1,2.5,0,3.5-.7,4.6-1.6,9.1-2.3,13.7-.2,1.4-1,2.4-2.4,2.7-1.6,.3-3.2,.6-4.7,.6-11,0-22.1,0-33.1-.2-2.8-.1-5.7-.7-8.4-1.5-8.7-2.6-16.5-6.9-22.3-14.2-5.6-6.9-8.7-14.8-9.2-23.7-.5-7.9-.1-15.6,2.7-23.1,4.2-11.2,11.4-19.8,21.9-25.6,10.9-6,22.6-8.7,35-8.6,7.2,.1,14.3,.9,21.4,2.4,.8,.2,1.5,.6,2.3,.9,.9,2.2,.9,4.6,1.1,7,.3,3.3,.6,6.7,.8,10,0,.6-.2,1.2-.4,2-1.1,0-2,.1-2.9,0-3.2-.4-6.3-1-9.5-1.5-8.7-1.2-17.2-.9-25.5,2.5-10.8,4.3-16.7,12.3-18.2,23.8-.5,4-.5,8,.5,11.9,2.6,10.7,9.5,17,20.4,19.1,8.1,1.5,16.2,1.1,24.3-.5,2.6-.7,5.1-1.9,8.5-1.2Z"/><path class="b" d="M1687.22,562.6c-3,.2-5.2-.8-7.5-1.4-3.6-.8-7.2-1.7-10.9-1.4-2.5,.2-5.1,.5-7.6,.9-.9,.1-1.8,.5-2.7,1-3.7,1.9-5.1,5.5-3.5,9.3,.7,1.6,1.6,3.2,2.8,4.4,1.6,1.7,3.6,3.2,5.4,4.7,5,4.2,10.2,8.2,15.1,12.6,2.3,2.1,4.3,4.7,6.1,7.3,2.7,3.7,3.9,8.1,4.1,12.6,.2,4.8-1.3,9.1-4.3,12.9-6.1,7.6-14.1,11.3-23.7,11.7-3.5,.1-7-.1-10.5-.1-4.3,0-8.6,.1-12.9,.1-3.9,0-7.6-.5-11.4-1.5-.7-.2-1.4-.6-2-.9-1.6-9.3-1.9-15-1.1-19.4,.9,0,1.8-.2,2.7,0,2.2,.6,4.3,1.4,6.4,2,5.9,1.8,11.9,2.4,18,1.8,1.6-.2,3.1-.5,4.7-1,4.3-1.2,7.2-6.2,4.2-11.2-1.5-2.5-3.3-4.6-5.6-6.5-5.4-4.5-10.9-8.9-16-13.7-2.9-2.7-5.5-5.8-7.8-9-6.9-9.7-3.8-24.1,6.1-30.4,3.5-2.3,7.3-3.9,11.3-5.1,8.8-2.6,17.7-2.5,26.6-1.5,3.3,.4,6.6,1.1,9.9,1.6,1.7,.3,2.8,1.2,3.1,3.1,.9,5.6,1.7,11.1,1,17.1Z"/><path class="b" d="M1163.52,636.1c-7.6,1.5-21.6,1.4-27.7,0-1.1-1.6-.7-3.4-.5-5.1,1.6-16.1,2.3-32.2,2.9-48.3,.2-5.3,.4-10.5,.7-15.8,.2-5-.2-5.5-5.2-5.6h-18.7c-1.1,0-2.2,0-3.4-.1-1.3-.1-2.1-.8-2.3-2-.1-.6-.2-1.3-.1-1.9,.1-4,.1-8,.3-12,0-.8,.3-1.5,.5-2.5,1.1-.2,2.2-.5,3.2-.6,1.8-.1,3.5,0,5.3,0,24.6,0,49.2-.1,73.8-.1,1.6,0,3.2-.1,4.6,.7,1.1,4.8,.9,13.1-.2,17.6-1.5,1.2-3.3,.9-5,.9h-17.7c-1.3,0-2.6,.1-3.8,.1-1.5,0-2.4,1-2.7,2.3-.3,1.1-.5,2.2-.5,3.3-.4,7.3-.5,14.7-1.1,22-1.3,14.3-1,28.7-1.8,43.1-.3,1.3-.4,2.6-.6,4Z"/><path class="b" d="M149.62,616.8c-.1-.9-.4-2.2-.3-3.4,.6-15.3,1.3-30.6,2-46,.1-2.2,.3-4.4,1.4-6.7,7.1-.7,14.1-.8,21,.7,8.5,1.9,13.8,7.2,15.8,15.5,2.1,8.4,1.6,16.8-1.7,24.9-2.6,6.4-7.1,10.9-13.5,13.4-4.5,1.8-9.1,2.9-14,2.8-1.9,0-3.8,.1-5.8,0-1.6,.1-3.2,.3-4.9-1.2Z"/></svg>