<?xml version="1.0" encoding="utf-8"?>
<!-- Generator: Adobe Illustrator 26.1.0, SVG Export Plug-In . SVG Version: 6.00 Build 0)  -->
<svg version="1.1"
	 id="Layer_1" xmlns:inkscape="http://www.inkscape.org/namespaces/inkscape" xmlns:sodipodi="http://sodipodi.sourceforge.net/DTD/sodipodi-0.dtd" xmlns:svg="http://www.w3.org/2000/svg"
	 xmlns="http://www.w3.org/2000/svg" xmlns:xlink="http://www.w3.org/1999/xlink" x="0px" y="0px" viewBox="0 0 2427 893"
	 style="enable-background:new 0 0 2427 893;" xml:space="preserve">
<style type="text/css">
	.st0{fill:#FFFFFF;}
</style>
<sodipodi:namedview  bordercolor="#666666" borderopacity="1.0" id="namedview13" inkscape:current-layer="g2821" inkscape:cx="1143.7567" inkscape:cy="1261.0649" inkscape:pagecheckerboard="0" inkscape:pageopacity="0.0" inkscape:pageshadow="2" inkscape:window-height="837" inkscape:window-maximized="1" inkscape:window-width="1440" inkscape:window-x="-8" inkscape:window-y="-8" inkscape:zoom="0.1767767" pagecolor="#ffffff" showgrid="false">
	</sodipodi:namedview>
<g id="g10" transform="translate(4.918234,5.7972779)">
	<g id="g2821">
		<g id="g3210" transform="translate(-96.168979,-31.488527)">
			<g id="g3217">
				<g id="g3213">
					<path id="path3073" class="st0" d="M517,178.8l-11.2,1.6l-11.2,1.6l-11.4,2.9l-11.4,2.9l-12.3,5l-12.3,5l-10.8,6.4l-10.8,6.4
						l-9.1,6.9l-9.1,6.9l-11,11.3l-11,11.3l-6.3,8.5l-6.3,8.5l-5.3,9l-5.3,9l-104.6,198l-104.6,198l-0.7,1.8l-0.7,1.8l80.3-0.3
						l80.3-0.3l18.9-43.8l18.9-43.8h60.4H471v1.9v1.9l-2,37.3l-2,37.3l-0.4,4.8l-0.4,4.8h80.4H627v-6.9v-6.9l-9-240.3l-9-240.3v-4.2
						v-4.2h-46H517z M781.4,178.8l-61.8,250.8l-61.8,250.7l0,0.8l0,0.8h69.5h69.5l1-3.8l1-3.8l61.1-247l61.1-247v-0.7v-0.7h-69.8
						H781.4z M988.6,183.8l-0.5,0.5l-0.5,0.5l-51.8,208.2L884,601.3l-1.5,10.1l-1.5,10.1l0,8.4l0,8.4l1.4,6.6l1.4,6.6l2.1,4.1
						l2.1,4.1l3.2,3.7l3.2,3.7l5.9,3.8l5.9,3.8l9.1,2.9l9.1,2.9l10,1.6l10,1.6l3.5,0.3l3.5,0.3l32.5,0.2l32.5,0.2l16-1l16-1l7.1-0.6
						l7.1-0.6l9.7-39.7l9.7-39.7l0.6-2.1l0.6-2.1l-17.3-0.5l-17.3-0.5l-3.5-1.3l-3.5-1.3l-3.4-2.5l-3.4-2.5l-1.9-4.1l-1.9-4.1v-4.5
						v-4.5l22.8-93l22.8-93l29.5-0.3l29.5-0.3l9.9-40.7l9.9-40.7l0.5-1.8l0.5-1.8h-28.6h-28.6l-0.4-0.8l-0.4-0.8l14.7-57.5
						l14.7-57.5l-69.5-0.3L988.6,183.8z M487,289.5l0.3,0.4l0.3,0.4l-5.7,103.5l-5.7,103.5l-0.1,0.2l-0.1,0.2h-42h-42l1.4-3.2
						l1.4-3.2l45.7-100.5l45.8-100.5l0.4-0.4L487,289.5z M2103.3,289.8l-9.9,0l-9.9,0l-9.3,1l-9.3,1l-7.7,1.6l-7.7,1.6l-8,2.5
						l-8,2.5l-11,5.4l-11,5.4l-8.5,6.4l-8.5,6.4l-8.5,8.8l-8.6,8.8l-2.2,2.9l-2.2,2.9l-0.6-0.6l-0.6-0.6l5.5-22.6l5.5-22.6
						l-70.6,0.3l-70.6,0.3l-46.7,188.5l-46.7,188.5l-0.1,1.8l-0.1,1.8h69.8h69.7l15.9-64.2l15.9-64.2l16.3-65.8l16.3-65.8l4.1-8.5
						l4.1-8.5l6.3-6.3l6.3-6.3l4.2-2.1l4.2-2.1l5.7-1.5l5.7-1.5h9.8h9.8l5.4,2l5.4,2l3.7,3.7l3.7,3.7l1.6,5.5l1.6,5.5l-0.6,7.6
						l-0.6,7.5l-31.6,128l-31.6,128l-0.5,1.8l-0.5,1.8h69.8h69.8l18.8-76.2l18.8-76.2l13.4-53.9l13.4-53.9l4-8.2l4-8.2l5.8-5.9
						l5.8-5.9l5.1-2.7l5.1-2.7l5.9-1.5l5.9-1.5h9.6h9.6l5,1.5l5,1.5l4.1,3.5l4.1,3.5l1.7,4.3l1.7,4.3v8v8l-32.1,130.6L2190,680.5
						v0.7v0.7h29.7h29.8l10.7-1l10.7-1l8.8-2.5l8.8-2.5l8.4-4.1l8.4-4.1l7.6-5.7l7.6-5.7l5.2-5.5l5.2-5.5l4.7-7.2l4.7-7.2l2.5-6.2
						l2.5-6.2l27.9-113l27.9-113l1.9-11.3l1.9-11.3l0-11.7l0-11.7l-1.5-6.9l-1.5-6.9l-3-6.3l-3-6.3l-5-5.3l-5-5.3l-8.8-4.6l-8.8-4.6
						l-7.6-2.5l-7.6-2.5l-9.9-1.8l-9.9-1.8h-20.5h-20.5l-10,1.8l-10,1.8l-11.5,3.5l-11.5,3.5l-10.1,4.8l-10.1,4.8l-7.8,5.2l-7.8,5.2
						l-7.8,6.9l-7.8,6.9l-5.3,6.4l-5.3,6.4l-0.5,0.1l-0.5,0.1l-1.7-6.8l-1.7-6.8l-2.5-5.4l-2.5-5.4l-4.4-6.1l-4.4-6.1l-5.4-4.1
						l-5.4-4.1l-6.6-3.1l-6.6-3.1l-9.4-2.4l-9.4-2.4l-11.6-1.1L2103.3,289.8z M1208,300.8v0.4v0.4l-46.5,188.8L1115,679.3v1.2v1.2
						h69.4h69.4l0.5-1.8l0.5-1.8l46.1-187l46.1-187l0.5-1.8l0.5-1.8H1278H1208z M1412.1,300.8l-0.5,1.8l-0.5,1.8L1376,446.8
						l-35.1,142.5l-2.1,12l-2.1,12l0.5,13.5l0.5,13.5l2.1,6.6l2.1,6.6l4,6.1l4,6.1l5.8,4.6l5.8,4.6l9.7,4.9l9.7,4.9l9.3,2.1l9.3,2.1
						l6.5,0.8l6.5,0.8l14,0.1l0,0l14,0.1l9-1l9-1l7.9-1.6l7.9-1.6l7.6-2.4l7.6-2.4l10-4.9l10-4.9l8.9-6.3l8.9-6.3l10.9-11.4
						l10.9-11.4l0.4,0.4l0.4,0.4l-4.9,20.5l-4.9,20.5l-0.5,2.2l-0.5,2.2l69.8,0l69.8,0l46.4-188.7l46.4-188.7l0.5-1.8l0.4-1.8h-70.1
						H1632v0.8v0.8l-31.1,126l-31.1,126l-2.4,7l-2.4,7l-3.2,5.3l-3.2,5.3l-5,5l-5,5l-4.3,2.5l-4.3,2.5l-8.2,2.1l-8.2,2.1l-8.7-0.5
						l-8.7-0.5l-5.6-2.5l-5.6-2.5l-3-4.1l-3-4.1l-1.2-5.1l-1.2-5.1l0.6-6.6l0.6-6.6l31.6-128l31.6-128l0.5-1.8l0.5-1.8h-70
						L1412.1,300.8z M2417.4,625.5l-6.1,1.2l-6.1,1.2l-3.5,1.8l-3.5,1.8l-3.8,3.7l-3.8,3.7l-2.2,4.2l-2.2,4.2l-0.4,7.5l-0.4,7.5
						l2.1,5.6l2.1,5.6l5,4.7l16.4,8.5l4.1,0.8l4-0.5l4-0.5l4.9-1.6l4.9-1.6l5.2-5.1l5.2-5.1l2.1-5.8l2.1-5.8v-4.8v-4.8l-1.7-5.2
						l-1.7-5.2l-3.9-4.4l-3.9-4.4l-3.3-2l-3.3-2l-6.3-1.6L2417.4,625.5z M2410.6,632.5h6h6l3.7,1.7l3.7,1.7l3.1,3.1l3.1,3.1l1.8,4
						l1.8,4l0,6.3l0,6.3l-1.4,3.3l-1.4,3.3l-3.4,3.8l-3.4,3.8l-4,1.8l-4,1.8l-5.5,0v0l-5.5,0l-3.5-1.5l-3.5-1.5l-3.3-3.2l-3.3-3.2
						l-1.8-3.5l-1.8-3.5l-0.7-3.8l-0.7-3.8l1.1-5.5l1.1-5.5l3.2-4.2l3.2-4.2l4.7-2.4L2410.6,632.5z M2418.2,640.7l-6.8,0.6l-6.8,0.6
						v15.4v15.4h3.5h3.5v-6.6v-6.6l3.7,0.7l3.7,0.7l0.7,0.4l0.7,0.4l1.6,5.5l1.6,5.5h3.6h3.6l-0.7-3.2l-0.7-3.2l-1-3.2l-1-3.2
						l-2.1-1.5l-2.1-1.5h1.2h1.2l2-2l2-2v-2.9v-2.9l-1.8-2.2l-1.8-2.2l-4-0.9L2418.2,640.7z M2415.5,645.6l2.6,0.7l2.6,0.7l1,1.9
						l1,1.9l-1.1,2l-1.1,2h-4.5h-4.5v-3.9v-3.9l1.9-0.6L2415.5,645.6z"/>
				</g>
			</g>
		</g>
	</g>
</g>
</svg>
