<?xml version="1.0" encoding="UTF-8"?><svg id="a" xmlns="http://www.w3.org/2000/svg" viewBox="0 0 494.6 150.6"><defs><style>.d{fill:#fff;}</style></defs><g id="b"><path id="c" class="d" d="M222.8,149.8h-.2l-.2-.1-.2-.1-1-1-1-1-2.6-2.7-2.6-2.7h-20.8v5.6l-.1,.4-.1,.4-.3,.3-.3,.3-.4,.1-.4,.1h-3.8l-.4-.1-.4-.1-.2-.3-.2-.3-.1-.4-.1-.4v-18.8l.2-.7,.2-.7,.2-.4,.2-.4,.3-.4,.3-.4,.5-.4,.5-.4,.5-.3,.5-.3,.7-.2,.7-.2,.5-.1,.5-.1h24.6l.6,.1,.6,.1,.8,.2,.8,.2,.6,.2,.6,.2,.5,.3,.5,.3,.6,.5,.6,.5,.5,.6,.5,.6,.3,.6,.3,.6,.2,.5,.2,.5,.2,.9,.2,.9v2.6l-.3,1-.3,1-.3,.7-.3,.7-.5,.7-.5,.7-.6,.6-.6,.6-.4,.3-.4,.3,.4,.5,.4,.5,1.4,1.5,1.4,1.5,.1,.3,.1,.3v.8l-.1,.2-.1,.2-1.6,1.5-1.6,1.5-.3,.1-.3,.1,.8-.2h0Zm-16.2-14.3h12.3l.4-.2,.4-.2,.2-.2,.2-.2,.2-.3,.2-.3v-1.6l-.3-.5-.3-.5-.4-.2-.4-.2-.4-.1-.4-.1h-24v4.8l12.3-.2Zm185.3,14.3h-.2l-.2-.1-.2-.1-1-1-1-1-2.6-2.7-2.6-2.7h-20.8v5.6l-.1,.4-.1,.4-.3,.3-.3,.3-.4,.1-.4,.1h-3.5l-.4-.1-.4-.1-.2-.3-.2-.3-.1-.4-.1-.4v-18.8l.2-.7,.2-.7,.2-.4,.2-.4,.3-.4,.3-.4,.5-.4,.5-.4,.5-.3,.5-.3,.7-.2,.7-.2,.5-.1,.5-.1h24.6l.6,.1,.6,.1,.8,.2,.8,.2,.6,.2,.6,.2,.5,.3,.5,.3,.6,.5,.6,.5,.5,.6,.5,.6,.3,.6,.3,.6,.2,.5,.2,.5,.2,.9,.2,.9v2.6l-.3,1-.3,1-.3,.7-.3,.7-.5,.7-.5,.7-.6,.6-.6,.6-.4,.3-.4,.3,.4,.5,.4,.5,1.4,1.5,1.4,1.5,.1,.3,.1,.3v.8l-.1,.2-.1,.2-1.6,1.5-1.6,1.5-.3,.1-.3,.1,.5-.2h0Zm-16.1-14.3h12.3l.4-.2,.4-.2,.2-.2,.2-.2,.2-.3,.2-.3v-1.6l-.3-.5-.3-.5-.4-.2-.4-.2-.4-.1-.4-.1h-24v4.8l12.3-.2h0ZM13.9,149.4h-1.9l-.3-.1-.3-.1-.2-.2-.2-.2-.1-.4-.1-.4v-21l.1-.5,.1-.5,.2-.4,.2-.4,.3-.3,.3-.3,.4-.2,.4-.2,.6-.2,.6-.2h.8l.4,.1,.4,.1,.4,.2,.4,.2,7.4,7.6,7.4,7.6,7.1-7.3,7.1-7.3,.4-.4,.4-.4,.4-.2,.4-.2,.5-.1,.5-.1,.6,.1,.6,.1,.4,.2,.4,.2,.4,.4,.4,.4,.2,.3,.2,.3,.1,.5,.1,.5v21.6l-.2,.3-.2,.3-.4,.2-.4,.2h-4l-.4-.1-.4-.1-.2-.2-.2-.2-.1-.2-.1-.2v-12.8l-5.7,5.9-5.7,5.9-.4,.3-.4,.3-.6,.1-.6,.1h-.6l-.6-.2-.6-.2-.3-.2-.3-.2-5.7-5.9-5.7-5.9v12.6l-.1,.2-.1,.2-.3,.3-.3,.3-.4,.1-.4,.1-2.1,.2h0Zm60.6,0h-13.3l-.8-.2-.8-.2-.6-.3-.6-.3-.5-.4-.5-.4-.5-.6-.5-.6-.3-.4-.3-.4-.2-.5-.2-.5-.2-.8-.2-.8v-12.6l.2-.8,.2-.8,.2-.4,.2-.4,.4-.6,.4-.6,.6-.6,.6-.6,.6-.4,.6-.4,.5-.2,.5-.2,.7-.2,.7-.2h25.8l.7,.2,.7,.2,.5,.2,.5,.2,.7,.4,.7,.4,.6,.6,.6,.6,.4,.6,.4,.6,.2,.6,.2,.6,.2,.8,.2,.8v12.2l-.2,.7-.2,.7-.3,.6-.3,.6-.3,.5-.3,.5-.6,.6-.6,.6-.4,.3-.4,.3-.6,.3-.6,.3-.8,.2-.8,.2h-12.9Zm-.2-6.7h12.3l.2-.2,.2-.2v-11.2l-.2-.2-.2-.2h-24.4l-.2,.1-.2,.1-.1,.1-.1,.1v11l.2,.2,.2,.2h12.3v.2h0Zm45.1,6.7h-1.9l-.3-.1-.3-.1-.2-.2-.2-.2-.3-.4-.1-.4v-17.3h-17.4l-.4-.1-.4-.1-.2-.2-.2-.2-.1-.4-.1-.4v-3.8l.1-.4,.1-.4,.3-.3,.3-.3,.4-.1,.4-.1h41l.5,.1,.5,.1,.3,.3,.3,.3,.1,.5,.1,.5v3.4l-.1,.4-.1,.4-.3,.3-.3,.3-.4,.1-.4,.1h-17.2v17.2l-.1,.4-.1,.4-.3,.3-.3,.3-.4,.1-.4,.1-1.9-.1h0Zm45.4,0h-13.3l-.8-.2-.8-.2-.6-.3-.6-.3-.5-.4-.5-.4-.5-.6-.5-.6-.3-.4-.3-.4-.2-.5-.2-.5-.2-.8-.2-.8v-12.6l.2-.8,.2-.8,.2-.4,.2-.4,.4-.6,.4-.6,.6-.6,.6-.6,.6-.4,.6-.4,.5-.2,.5-.2,.7-.2,.7-.2h25.8l.7,.2,.7,.2,.5,.2,.5,.2,.7,.4,.7,.4,.6,.6,.6,.6,.4,.6,.4,.6,.2,.6,.2,.6,.2,.8,.2,.8v12.2l-.2,.7-.2,.7-.3,.6-.3,.6-.3,.5-.3,.5-.6,.6-.6,.6-.4,.3-.4,.3-.6,.3-.6,.3-.8,.2-.8,.2h-12.9Zm-.2-6.7h12.3l.2-.2,.2-.2v-11.2l-.2-.2-.2-.2h-24.4l-.2,.1-.2,.1-.1,.1-.1,.1v11l.2,.2,.2,.2h12.3v.2h0Zm82.4,6.7h-15l-.3-.1-.3-.1-.2-.2-.2-.2-.1-.4-.1-.4v-3.8l.1-.4,.1-.4,.3-.3,.3-.3,.4-.1,.4-.1h28.8l.2-.1,.2-.1,.1-.3,.1-.3v-.8l-.1-.3-.1-.3-.3-.2-.3-.2h-24.6l-.9-.2-.9-.2-.6-.3-.6-.3-.6-.5-.6-.5-.4-.5-.4-.5-.3-.4-.3-.4-.3-.6-.3-.6-.2-.9-.2-.9v-1.4l.1-.6,.1-.6,.2-.7,.2-.7,.3-.6,.3-.6,.5-.6,.5-.6,.5-.4,.5-.4,.4-.2,.4-.2,.6-.3,.6-.3,.9-.2,.9-.2h29.4l.5,.1,.5,.1,.3,.3,.3,.3,.1,.4,.1,.4v3.8l-.1,.4-.1,.4-.2,.2-.2,.2-.4,.1-.4,.1h-28.9l-.4,.2-.4,.2-.1,.3-.1,.3v1.2l.2,.2,.2,.2,.3,.1,.3,.1h23.8l.7,.2,.7,.2,.5,.2,.5,.2,.4,.2,.4,.2,.5,.4,.5,.4,.4,.4,.4,.4,.4,.6,.4,.6,.3,.6,.3,.6,.2,.8,.2,.8,.1,.8,.1,.8-.1,.8-.1,.8-.2,.7-.2,.7-.3,.7-.3,.7-.5,.6-.5,.6-.4,.4-.4,.4-.5,.4-.5,.4-.5,.2-.5,.2-.8,.2-.8,.2-14.9-1.2h0Zm27.9,0h-1.9l-.3-.1-.3-.1-.2-.2-.2-.2-.1-.4-.1-.4v-17.6l.2-.8,.2-.8,.2-.4,.2-.4,.4-.6,.4-.6,.4-.4,.4-.4,.6-.5,.6-.5,.6-.3,.6-.3,.7-.2,.7-.2h26l.9,.2,.9,.2,.6,.3,.6,.3,.5,.3,.5,.3,.5,.4,.5,.4,.5,.6,.5,.6,.3,.6,.3,.6,.2,.8,.2,.8v7.4l-.2,.8-.2,.8-.2,.6-.2,.6-.4,.6-.4,.6-.6,.6-.6,.6-.5,.3-.5,.3-.5,.2-.5,.2-.7,.2-.7,.2-.8,.1-.8,.1h-24.6v3.2l-.1,.4-.1,.4-.3,.3-.3,.3-.4,.1-.4,.1h-2.1Zm15.9-11.5h12.5l.2-.1,.2-.1,.1-.2,.1-.2v-6.2l-.1-.2-.1-.2-.2-.1-.2-.1h-24.4l-.2,.1-.2,.1-.1,.1-.1,.1v6.8l12.5,.2h0Zm43.1,11.5h-13.3l-.8-.2-.8-.2-.6-.3-.6-.3-.5-.4-.5-.4-.5-.6-.5-.6-.3-.4-.3-.4-.2-.5-.2-.5-.2-.8-.2-.8v-12.6l.2-.8,.2-.8,.2-.4,.2-.4,.4-.6,.4-.6,.6-.6,.6-.6,.6-.4,.6-.4,.5-.2,.5-.2,.7-.2,.7-.2h25.8l.7,.2,.7,.2,.5,.2,.5,.2,.7,.4,.7,.4,.6,.6,.6,.6,.4,.6,.4,.6,.2,.6,.2,.6,.2,.8,.2,.8v12.2l-.2,.7-.2,.7-.3,.6-.3,.6-.3,.5-.3,.5-.6,.6-.6,.6-.4,.3-.4,.3-.6,.3-.6,.3-.8,.2-.8,.2h-12.9Zm-.2-6.7h12.3l.2-.2,.2-.2v-11.2l-.2-.2-.2-.2h-24.4l-.2,.1-.2,.1-.1,.1-.1,.1v11l.2,.2,.2,.2h12.3v.2h0Zm88.1,6.7h-1.9l-.3-.1-.3-.1-.2-.2-.2-.2-.1-.4-.1-.4v-17.3h-17.5l-.4-.1-.4-.1-.2-.2-.2-.2-.1-.4-.1-.4v-3.8l.1-.4,.1-.4,.3-.3,.3-.3,.4-.1,.4-.1h41l.5,.1,.5,.1,.3,.3,.3,.3,.1,.5,.1,.5v3.4l-.1,.4-.1,.4-.3,.3-.3,.3-.4,.1-.4,.1h-17.4v17.2l-.1,.4-.1,.4-.3,.3-.3,.3-.4,.1-.4,.1-1.8-.1h0Zm42.1,0h-15l-.3-.1-.3-.1-.2-.2-.2-.2-.1-.4-.1-.4v-3.8l.1-.4,.1-.4,.3-.3,.3-.3,.4-.1,.4-.1h29l.2-.1,.2-.1,.1-.3,.1-.3v-.8l-.1-.3-.1-.3-.3-.2-.3-.2h-24.6l-.9-.2-.9-.2-.6-.3-.6-.3-.6-.5-.6-.5-.4-.5-.4-.5-.3-.4-.3-.4-.3-.6-.3-.6-.2-.9-.2-.9v-1.4l.1-.6,.1-.6,.2-.7,.2-.7,.3-.6,.3-.6,.5-.6,.5-.6,.5-.4,.5-.4,.4-.2,.4-.2,.6-.3,.6-.3,.9-.2,.9-.2h29.4l.5,.1,.5,.1,.3,.3,.3,.3,.1,.4,.1,.4v3.8l-.1,.4-.1,.4-.2,.2-.2,.2-.4,.1-.4,.1h-29l-.4,.2-.4,.2-.1,.3-.1,.3v1.2l.2,.2,.2,.2,.3,.1,.3,.1h23.8l.7,.2,.7,.2,.5,.2,.5,.2,.4,.2,.4,.2,.5,.4,.5,.4,.4,.4,.4,.4,.4,.6,.4,.6,.3,.6,.3,.6,.2,.8,.2,.8,.1,.8,.1,.8-.1,.8-.1,.8-.2,.7-.2,.7-.3,.7-.3,.7-.5,.6-.5,.6-.4,.4-.4,.4-.5,.4-.5,.4-.5,.2-.5,.2-.8,.2-.8,.2-15-1.2h0ZM164.4,113.1h-3.5l-.3-.1-.3-.1-.3-.3-.3-.3-.1-.4-.1-.4v-41.8l.1-.4,.1-.4,.2-.2,.2-.2,.3-.2,.3-.2h7.8l.3,.1,.3,.1,.3,.3,.3,.3,.1,.5,.1,.5v15.6h51.4v-15.8l.1-.4,.1-.4,.3-.3,.3-.3,.4-.1,.4-.1h7.4l.3,.1,.3,.1,.3,.3,.3,.3,.1,.5,.1,.5v41.5l-.1,.5-.1,.5-.3,.3-.3,.3-.5,.1-.5,.1h-7l-.4-.1-.4-.1-.3-.3-.3-.3-.1-.4-.1-.4v-15.8h-51.4v15.6l-.1,.5-.1,.5-.3,.3-.3,.3-.5,.1-.5,.1-3.7-.1h0Zm80.7,0h-3.5l-.3-.1-.3-.1-.3-.3-.3-.3-.1-.4-.1-.4v-41.6l.1-.4,.1-.4,.3-.3,.3-.3,.4-.1,.4-.1h7l.5,.1,.5,.1,.3,.3,.3,.3,.1,.5,.1,.5v41.3l-.1,.5-.1,.5-.3,.3-.3,.3-.5,.1-.5,.1-3.7-.1h0Zm55,0h-29.1l-.7-.1-.7-.1-1-.3-1-.3-.7-.3-.7-.3-.6-.4-.6-.4-.6-.5-.6-.5-.7-.7-.7-.7-.5-.6-.7-.5-.4-.6-.4-.6-.3-.7-.3-.7-.3-1.2-.3-1.2-.1-.8-.1-.8v-21.4l.2-1,.2-1,.3-.8,.3-.8,.4-.7,.4-.7,.5-.7,.5-.7,1-1,1-1,.7-.5,.7-.5,.7-.4,.7-.4,.8-.3,.8-.3,1-.2,1-.2h58.6l.5,.1,.5,.1,.3,.3,.3,.3,.1,.5,.1,.5v6.8l-.1,.5-.1,.5-.3,.3-.3,.3-.5,.1-.5,.1h-57.8l-.4,.2-.4,.2-.3,.3-.3,.3-.2,.4-.2,.4v20.6l.2,.4,.2,.4,.3,.3,.3,.3,.4,.2,.4,.2h57.8l.4,.1,.4,.1,.2,.1,.2,.1,.1,.2,.1,.2,.1,.4,.1,.4v6.8l-.1,.5-.1,.5-.3,.3-.3,.3-.5,.1-.5,.1-28.5,.1h0Zm44.5,0h-3.5l-.3-.1-.3-.1-.3-.3-.3-.3-.1-.5-.1-.5v-32l.2-1,.2-1,.3-.8,.3-.8,.4-.7,.4-.7,.5-.7,.5-.7,.9-.9,.9-.9,.6-.4,.6-.4,.6-.4,.6-.4,.8-.3,.8-.3,1-.2,1-.2,.5-.1,.5-.1h46.8l.7,.1,.7,.1,.8,.2,.8,.2,.5,.2,.5,.2,.6,.3,.6,.3,.6,.4,.6,.4,.6,.5,.6,.5,.5,.6,.5,.6,.4,.6,.4,.6,.4,.6,.4,.6,.3,.7,.3,.7,.2,.9,.2,.9,.1,.7,.1,.7v31.6l-.1,.5-.1,.5-.3,.3-.3,.3-.5,.1-.5,.1h-7l-.4-.1-.4-.1-.3-.3-.3-.3-.1-.4-.1-.4v-11.2h-49.4v11l-.1,.5-.1,.5-.3,.3-.3,.3-.5,.1-.5,.1-3.3-.2h0Zm30-23h24.7v-9.8l-.2-.4-.2-.4-.3-.3-.3-.3-.4-.2-.4-.2h-45.6l-.5,.2-.5,.2-.3,.3-.3,.3-.2,.4-.2,.4v9.6l24.7,.2h0Zm72.2,23h-26.9l-.3-.1-.3-.1-.3-.3-.3-.3-.1-.4-.1-.4v-7l.1-.5,.1-.5,.3-.3,.3-.3,.3-.1,.3-.1h54.4l.4-.2,.4-.2,.4-.4,.4-.4,.3-.6,.3-.6v-2.2l-.3-.5-.3-.5-.3-.3-.3-.3-.3-.2-.3-.2-.4-.1-.4-.1h-44.4l-.6-.1-.6-.1-.7-.2-.7-.2-.8-.3-.8-.3-.5-.3-.5-.3-.3-.2-.3-.2-.6-.4-.6-.4-.6-.6-.6-.6-.4-.5-.4-.5-.4-.6-.4-.6-.4-.7-.4-.7-.2-.7-.2-.7-.2-.9-.2-.9-.1-.6-.1-.6v-2.8l.2-.9,.2-.9,.2-.9,.2-.9,.3-.7,.3-.7,.2-.4,.2-.4,.5-.8,.5-.8,.8-.8,.8-.8,.7-.5,.7-.5,.5-.3,.5-.3,.6-.3,.6-.3,.9-.3,.9-.3,.9-.2,.9-.2,.7-.1,.7-.1h53.4l.4,.1,.4,.1,.3,.3,.3,.3,.1,.4,.1,.4v7.2l-.1,.4-.1,.4-.3,.3-.3,.3-.4,.1-.4,.1h-53.2l-.5,.1-.5,.1-.5,.2-.5,.2-.3,.3-.3,.3-.2,.5-.2,.5v1.4l.1,.6,.1,.6,.3,.5,.3,.5,.3,.3,.3,.3,.5,.3,.5,.3h44.6l.7,.1,.7,.1,.7,.2,.7,.2,.7,.2,.7,.2,.7,.3,.7,.3,.6,.4,.6,.4,.7,.6,.7,.6,.5,.6,.5,.6,.4,.6,.4,.6,.3,.5,.3,.5,.3,.8,.3,.8,.3,1.1,.3,1.1,.1,.7,.1,.7v2.6l-.1,.6-.1,.6-.2,.9-.2,.9-.2,.7-.2,.7-.4,.8-.4,.8-1.1,.7-.5,.7-.5,.6-.5,.6-.7,.6-.7,.6-.7,.5-.7,.5-.5,.3-.5,.3-.7,.2-.7,.2-1.1,.2-1.1,.2-.7,.1-.7,.1h-27.1Zm-359.4-3.9H24l-.9-.1-.9-.1-1.2-.3-1.2-.3-1.2-.4-1.2-.4-1.4-.7-1.4-.7-1-.7-1-.7-.7-.5-.7-.5-.9-.8-.9-.8-.7-.7-.7-.7-.5-.6-.5-.6-.6-.7-.6-.7-.5-.7-.5-.7-.4-.7-.4-.7-.6-1.1-.6-1.1-.3-.7-.3-.7-.4-1.1-.4-1.1-.4-1.5-.4-1.5-.2-1.2-.2-1.2-.1-1.2-.1-1.2V27.4l.1-1.2,.1-1.2,.2-1.1,.2-1.1,.3-1.1,.3-1.1,.3-.9,.3-.9,.4-1,.4-1,.4-.9,.4-.9,.5-.8,.5-.8,.5-.8,.5-.8,.7-.9,.7-.9,.8-1,.8-1,1.1-1.1,1.1-1.1,1-.8,1-.8,1-.7,1-.7,.9-.5,.9-.5,.8-.3,.8-.3,.8-.2,.8-.2,.9-.2,.9-.2,.9-.1,.9-.1,.9-.1,.9-.1h124.8l.3,.1,.3,.1,.2,.2,.2,.2,.1,.3,.1,.3V19.8l-.1,.3-.1,.3-.2,.2-.2,.2-.3,.1-.3,.1H26l-.7,.1-.7,.1-.7,.3-.7,.3-.4,.3-.4,.3-.5,.4-.5,.4-.5,.6-.5,.6-.3,.6-.3,.6-.3,.7-.3,.7-.1,.6-.1,.6-.1,.9-.1,.9v50.8l.1,.6,.1,.6,.3,.7,.3,.7,.2,.4,.2,.4,.5,.7,.5,.7,.6,.6,.6,.6,.6,.4,.6,.4,.6,.2,.6,.2,.4,.1,.4,.1h124.4l.4,.1,.4,.1,.3,.3,.3,.3,.1,.3,.1,.3v19l-.2,.3-.2,.3-.4,.2-.4,.2-62.8-.4h0Zm92-48h-6.2v-12.4h-12.4v-12.4h12.4v-12.2h-12.4V11.8h12.4V.4h12.4V11.8h12.4V.4h12.4V11.8h12.4V.4h12.4V11.8h12.4V.4h12.4V11.8h12.4V.4h12.4V11.8h12.4V.4h12.4V11.8h12.4V.4h12.4V11.8h12.4V.4h12.4V11.8h12.4V.4h12.4V11.8h12.4V.4h12.4V11.8h12.4V.4h12.4V11.8h12.4V.4h12.4V11.8h12.4V.4h12.4V11.8h11.4v12.4h-11.4v12.4h11.4v12.4h-11.4v12.4h-12.4v-12.4h-12.4v12.4h-12.4v-12.4h-12.4v12.4h-12.4v-12.4h-12.4v12.4h-12.4v-12.4h-12.4v12.4h-12.4v-12.4h-13.4v12.4h-12.4v-12.4h-12.4v12.4h-12.2v-12.4h-12.4v12.4h-12.4v-12.4h-12.2v12.4h-12.4v-12.4h-12.4v12.4h-12.2v-12.4h-12.4v12.4h-12.4v-12.4h-12.2v12.4h-12.4v-12.4h-12.4v12.4h-6v-.2h0Zm0-12.3h6.2v-12.4h12.4v12.4h12.4v-12.4h12.4v12.4h12.4v-12.4h12.4v12.4h12.4v-12.4h12.4v12.4h12.4v-12.4h12.4v12.4h12.4v-12.4h12.4v12.4h12.4v-12.4h12.4v12.4h12.4v-12.4h12.4v12.4h12.4v-12.4h12.4v12.4h12.4v-12.4h12.4v12.4h12.4v-12.4h12.4v12.4h12.4v-12.4h12.4v12.4h12.4v-12.4h-12.4v-12.3h12.4V11.8h-12.4v12.4h-12.4V11.8h-12.4v12.4h-12.4V11.8h-12.4v12.4h-12.4V11.8h-12.4v12.4h-12.4V11.8h-12.4v12.4h-13.4V11.8h-12.4v12.4h-12.4V11.8h-12.2v12.4h-12.4V11.8h-12.4v12.4h-12.2V11.8h-12.4v12.4h-12.4V11.8h-12.2v12.4h-12.4V11.8h-12.4v12.4h-12.2V11.8h-12.4v12.4h-12.4V11.8h-12.2v12.4h12.4v12.4h-12.4v12.4l6.2-.1h0Zm24.7-12.3h-6.2v-12.4h12.4v12.4h-6.2Zm24.6,0h-6.2v-12.4h12.4v12.4h-6.2Zm24.7,0h-6.2v-12.4h12.4v12.4h-6.2Zm24.7,0h-6.2v-12.4h12.4v12.4h-6.2Zm24.6,0h-6.2v-12.4h12.4v12.4h-6.2Zm24.7,0h-6.2v-12.4h12.4v12.4h-6.2Zm24.7,0h-6.2v-12.4h12.4v12.4h-6.2Zm24.7,0h-6.2v-12.4h12.4v12.4h-6.2Zm24.6,0h-6.2v-12.4h12.4v12.4h-6.2Zm24.7,0h-6.2v-12.4h12.4v12.4h-6.2Zm24.7,0h-6.2v-12.4h12.4v12.4h-6.2Z"/></g></svg>