<?xml version="1.0" encoding="utf-8"?>
<!-- Generator: Adobe Illustrator 26.2.1, SVG Export Plug-In . SVG Version: 6.00 Build 0)  -->
<svg version="1.1" id="Layer_1" xmlns="http://www.w3.org/2000/svg" xmlns:xlink="http://www.w3.org/1999/xlink" x="0px" y="0px"
	 viewBox="0 0 2500 648" style="enable-background:new 0 0 2500 648;" xml:space="preserve">
<style type="text/css">
	.st0{stroke:#000000;stroke-miterlimit:10;}
	.st1{fill:#FFFFFF;}
	.st2{fill:#FFFFFF;stroke:#FFFFFF;stroke-width:5.1041;stroke-miterlimit:102.081;}
	.st3{fill:#FFFFFF;stroke:#FFFFFF;stroke-width:3.0624;stroke-miterlimit:102.081;}
</style>
<rect y="3.2" class="st0" width="2499.6" height="644.8"/>
<path class="st1" d="M519.2,254.7c0,30.6-19,53.4-57,68.3c-29.5,11.6-65.4,17.5-107.9,17.5h-174c-45.6,0-84-5.3-115.1-15.8
	C22.4,310.4,1,287.5,1,255.9v-169c0-30.3,21.8-52.8,65.6-67.3C101.1,8.7,139.2,3.2,180.9,3.2H250c18.6,0,27.9,8.3,27.9,25
	s-9.3,25.1-27.9,25.1h-21.1c-2,0-3.2-0.1-3.4-0.3c-5.3-0.2-10-0.2-14.1-0.3s-7.5-0.2-10-0.2C119,52.5,77.7,63.9,77.7,86.8v168.8
	c0,22.9,34.6,34.3,103.7,34.3h173.2c16.5,0,34.2-2.4,52.8-7.5c23.5-6.3,35.2-14.7,35.2-25.5V221H334.9c-14.2,0-25.8-12.1-25.8-27
	s11.6-27.1,25.8-27.1h129.5c6.5-0.7,15.9-0.6,28-0.6c17.9,0,26.9,7.2,26.9,21.7L519.2,254.7 M971.5,256.4V154.2
	c0-21-29.7-31.8-89.9-31.8H762.7c-21.9,0-41.8,2.3-59.4,6.8c-24.8,6.8-36.8,16.5-36.8,29.5v97.7c0,12.5,12.7,22.2,37.5,27.8
	c17,4,36.8,5.7,59.4,5.7h118.2c18.3,0,36.6-2.1,54.5-6.3C959.4,277.5,971.5,268.4,971.5,256.4 M1045,256.4
	c0,30.7-18.4,52.8-55.9,66.5c-26.2,10.8-61.6,16.5-105.4,16.5h-121c-40.3,0-76.4-5.7-109-16.5c-40.3-14.2-60.1-36.4-60.1-66.5v-97.7
	c0-29.5,19.8-52.2,59.4-67.6c29.7-12,65.8-17.6,109-17.6h121.7c107.5,0,161.3,27.8,161.3,84.6V256.4L1045,256.4z M1926.9,100.8
	c0,14.8-11.3,22.2-32.5,22.2c-2.8,0-7.1,0-12.7-0.6h-13.4c-55.9,0-83.5,10.8-83.5,33.5v161.3c0,10.8-5.6,17.6-15.5,20.5
	c-4.3,1.1-14.9,1.7-31.8,1.7c-17,0-25.5-7.4-25.5-22.2V155.9c0-35.2,21.9-58.5,66.5-71c26.9-8,67.2-11.4,121-11.4
	C1917.8,73.5,1926.9,82.6,1926.9,100.8 M2355.2,256.4V154.2c0-21-29.7-31.8-89.9-31.8h-118.9c-21.9,0-41.7,2.3-59.4,6.8
	c-24.8,6.8-36.8,16.5-36.8,29.5v97.7c0,12.5,12.7,22.2,37.5,27.8c17,4,36.8,5.7,59.4,5.7h118.2c19.1,0,37.5-2.3,54.5-6.3
	C2343.1,277.5,2355.2,268.4,2355.2,256.4 M2428.7,256.4c0,30.7-18.4,52.8-55.9,66.5c-26.2,10.8-61.6,16.5-105.4,16.5h-121
	c-40.3,0-76.4-5.7-108.9-16.5c-40.4-14.2-60.2-36.4-60.2-66.5v-97.7c0-29.5,19.8-52.2,59.4-67.6c29.7-12,65.8-17.6,109-17.6h121.7
	c107.5,0,161.3,27.8,161.3,84.6L2428.7,256.4L2428.7,256.4L2428.7,256.4z M1569.3,125.6v-46c0-19.3-33.3-29.6-100-29.6h-271.6v117.1
	h271.6C1536,167.1,1569.3,152.8,1569.3,125.6 M1645.9,127.8c0,33.5-21.3,58-63.1,73.3c-32.6,10.8-71.7,15.9-117.7,15.9h-267.3v99
	c0,10.8-5,17.6-16.3,20.4c-2.8,1.1-14.2,1.7-33.3,1.7c-17.7,0-26.9-7.4-26.9-22.2V21.6c0-14.2,9.2-21.6,26.9-21.6h320.5
	c43.3,0,80.1,5.1,110.6,14.2c44.7,13.6,66.6,34.1,66.6,60.8L1645.9,127.8L1645.9,127.8z M828,536.3c-3.2,13.6-0.7,29.6,2.5,35.5
	s13.7,11.2,21.6,11.2c8.2,0,19.8-3.9,25.6-9.6c5.9-5.8,14-19.7,17.6-34.8c3.1-12.7,0.8-24.8-2.5-30.6c-3.3-5.8-13-13.7-21.1-13.7
	c-7.7,0-20,3.5-26.1,9.5C839.6,509.7,831.3,522.6,828,536.3 M793,537.5c5.3-22,18.7-40.2,32.8-52.5c14.2-12.3,32.3-14.7,52.3-14.7
	c20.5,0,35.5,8.4,43.7,20.5c8.2,12,12.7,28.4,7.5,50.1c-3.2,13.8-9.2,26.8-17.4,38.3c-7.3,10.1-17.2,16.4-27.7,22s-23,6.9-36.7,6.9
	c-13.9,0-24.8-2.4-32.8-7.3c-7.9-4.8-17.1-12.5-20.3-23C791.3,567.4,789.2,553.2,793,537.5 M653.2,604.1l29.1-131.8l60.4,0.2
	c1.3,0,44.5-2.2,42.4,34.4c-1.5,26.6-13.2,29.6-36.7,42c11.8,19.6,15.9,30.2,31.5,55.2h-39.3c-4.4-12.5-23.1-47.8-23.2-47.8
	l-20.4-0.2l-10.4,48.2L653.2,604.1 M703.5,532.4h23.2c21.5,0,31.7-33.7,9.4-34.1l-24.2-0.5L703.5,532.4L703.5,532.4z M568.2,472.8
	l94.9,0.4l-5,24.3l-61.3,0.4l-5.6,23.4l57.1,0.2l-5.3,25.1h-58.4l-6.8,33.4l60.5-1.1l-3.7,25.6l-96.1-1.1L568.2,472.8z M425.9,472.4
	l34.6,0.2l-11.8,48l49.8,1.3l10.7-49.1l34.4,0.4l-30,130.9l-34.1,0.2l13.1-57.5l-49.8-0.4l-13.7,58l-34-0.2L425.9,472.4z
	 M930.4,603.9h31.5l8.7-34.3H939L930.4,603.9z"/>
<path class="st1" d="M1056.5,422.4h291.7v223h-291.7V422.4z M1408.4,422.4h291.7v223h-291.7L1408.4,422.4L1408.4,422.4z"/>
<path class="st1" d="M1762.5,422.4h291.7v223h-291.7V422.4z"/>
<path class="st2" d="M2124.2,422.4h291.7v223h-291.7V422.4z"/>
<path class="st1" d="M273.7,544.2h22.6c-0.2-7.8,5.3-11.7,16.4-11.7c9.2,0.2,14.4,3.2,15.4,8.7c0,7.2,0.1,14,0.3,20.7
	c-5-5.8-14.2-9.1-27.7-10.1c-21.3,2-31.7,11.9-30.9,29.6c0.8,15.5,11.9,23.8,33.2,24.6c11.2,0.5,19.8-2.8,25.8-10.3
	c0.2,3.2,0.2,6.2,0.2,9.2h20.8c0.2-22.5,0.2-44.9,0.2-67.2c-5.2-11.7-14-17.9-26.2-18.6c-10.7-0.3-21.3-0.3-31.9-0.3
	C278.7,522.5,272.8,531,273.7,544.2 M176.7,518.3h21.4c15.9,0,29,12.9,29,28.5v17.9h-57.9c-2.4,17.6,2.1,26.2,13.4,25.7
	c4.1-0.2,8.5-0.2,12.9-0.2c7.5,0.7,11-3.4,10.8-13.1h20.9v0.5c0,15.7-13,28.5-29,28.5h-21.4c-15.9,0-29-12.8-29-28.5v-30.8
	C147.7,531.1,160.8,518.3,176.7,518.3 M43.7,482.5V604h70.5c19.1,1.3,28.9-9.5,29.2-32c0.8-15.7-5.6-26-19.6-30.5
	c11-2.1,16.9-11.4,17.4-28c-1.2-19.7-12.1-30.2-32.7-31.5C86.6,482.1,64.8,482.2,43.7,482.5"/>
<path d="M67.2,502.9v31c12.2-0.2,23.6-0.2,35-0.2c9.9,0.2,14.7-4.8,14.6-14.6c-0.5-8.9-4.7-14.1-12.6-15.6
	C91.8,503.5,79.5,503.4,67.2,502.9 M67.2,551.3v33.8c13-0.2,25.3-0.2,37.5-0.2c10.6,0.2,15.7-5.2,15.6-15.9c-0.5-9.7-5-15.3-13.5-17
	C93.6,552,80.4,551.8,67.2,551.3 M206.2,552.8c1.1-13.2-4.7-19.5-17.6-19.1c-14.4-0.1-20.8,6.4-19.4,19.4
	C181.5,552.6,193.8,552.6,206.2,552.8 M328.5,575.3c-4.2-7.4-13.4-9.9-27.6-7.4c-7.9,3.4-10.9,8.7-9.1,15.8
	c2.1,8.9,11.6,11.5,28.8,7.3C326.9,588.5,329.5,583.3,328.5,575.3 M2467.9,309.4c17.2-0.3,31.3,13.3,31.7,30.5
	c0.3,17.2-13.3,31.3-30.5,31.7c-0.4,0-0.8,0-1.1,0c-17.2-0.3-30.8-14.5-30.5-31.6C2437.7,323.2,2451.2,309.7,2467.9,309.4"/>
<path class="st3" d="M2467.9,314c14.6,0,26.5,11.9,26.5,26.5s-11.9,26.5-26.5,26.5c-14.6-0.4-26.2-12.6-25.8-27.2
	C2442.6,325.6,2453.9,314.3,2467.9,314"/>
<path class="st1" d="M2457.4,353.4V324h13.1c2.6,0,4.6,0.2,6,0.8c1.4,0.5,2.4,1.5,3.3,2.8c0.8,1.3,1.2,2.9,1.2,4.4
	c0.1,2-0.7,3.9-2,5.3s-3.5,2.3-6.3,2.7c1.1,0.5,1.8,1,2.3,1.5c1.2,1.1,2.3,2.4,3.3,3.9l5.1,8h-4.9l-3.9-6.2c-0.9-1.4-1.8-2.7-2.8-4
	c-0.6-0.8-1.2-1.4-2-2c-0.5-0.4-1.1-0.6-1.8-0.8c-0.7-0.1-1.5-0.1-2.2-0.1h-4.5v13L2457.4,353.4L2457.4,353.4z"/>
<path class="st1" d="M2461.3,336.9h8.4c1.4,0.1,2.8-0.1,4.2-0.6c0.9-0.3,1.7-0.9,2.3-1.7c0.5-0.8,0.8-1.7,0.8-2.7
	c0-1.3-0.5-2.6-1.5-3.4c-1-0.9-2.6-1.4-4.8-1.4h-9.4V336.9"/>
</svg>
