<?xml version="1.0" encoding="UTF-8"?><svg id="a" xmlns="http://www.w3.org/2000/svg" viewBox="0 0 2991.05 1039.04"><defs><style>.b{fill:#fff;}</style></defs><path class="b" d="M1620.49,131.38c-6.28,4.28-11.75,8.94-16.93,13.92-25.09,24.12-42.35,53.07-52.83,86.13-2.32,7.31-4.1,14.79-4.56,22.5-.4,6.59,.1,13.09,2,19.45,3.25,10.87,10.14,18.41,20.86,22.09,12.62,4.33,25.38,4.58,38.14,.4,8.26-2.7,15.88-6.72,23.17-11.38,13.4-8.56,25.49-18.74,36.91-29.75,4.14-3.99,8.08-8.21,12.31-12.11,4.46-4.11,9.11-8.04,13.8-11.89,1.96-1.61,4.19-2.93,6.4-4.21,3.21-1.86,6.64-3.12,10.66-2.64,.36-.72,.81-1.37,1.04-2.09,9.27-28.87,22.04-56.18,36.51-82.76,19.56-35.93,42.37-69.61,69.13-100.59,10.26-11.88,21.1-23.18,33.42-32.97,2-1.59,4.13-3,6.24-4.45,1.91-1.32,3.94-1.34,5.86-.11,1.61,1.02,3.2,2.13,4.59,3.42,7.18,6.63,13.88,13.7,19.68,21.59,.46,.63,.98,1.22,1.47,1.83,.62-.16,1.11-.19,1.5-.4,5.69-3.11,11.81-3.81,18.14-3.13,7.03,.75,13.85,2.37,20.32,5.3,23.7,10.74,41.36,27.51,51.44,51.73,5.1,12.25,7.21,25.12,7.44,38.36,.34,19.41-3.22,38.16-9.23,56.5-8.41,25.67-20.58,49.56-35.21,72.19-23.13,35.78-51.6,66.7-85.31,92.75-16.52,12.77-34.39,23.29-53.95,30.78-12.65,4.85-25.7,7.55-39.32,7.52-13.56-.03-25.3-4.49-35.46-13.45-8.68-7.66-15.04-16.93-19.8-27.38-4.81-10.56-7.52-21.69-8.95-33.19-1.01-8.12-1.08-16.26-.89-24.42,.02-.79,0-1.58,0-2.32-1.17-.6-1.51,.31-1.91,.88-7.65,10.87-16.1,21.1-24.93,31.01-4.57,5.13-9.19,10.25-14.17,14.96-11.26,10.66-22.32,21.55-34.71,30.95-12.28,9.31-25.27,17.37-39.73,22.92-13.34,5.12-27.09,7.47-41.35,6.3-18.8-1.55-34.35-9.29-45.98-24.41-8.36-10.87-13.35-23.2-16.01-36.55-1.88-9.45-2.35-19.02-2.22-28.63,.39-30.3,7.3-59.19,18.94-87.04,11.23-26.87,26.28-51.49,44.36-74.28,20.47-25.82,43.6-48.91,70.47-68.13,12.11-8.66,24.7-16.54,38.16-22.96,7.8-3.72,15.81-6.92,24.38-8.44,2.82-.5,5.7-.73,8.56-1.01,3.96-.39,6.74,1.42,8.72,4.73,3.42,5.71,5.8,11.79,5.94,18.51,.3,14.49-1.33,28.73-6.33,42.43-3.83,10.49-9.36,19.95-17.51,27.73-5.44,5.19-11.74,8.84-19.22,10.14-4.92,.86-9.9,.64-14.83,.11-6.72-.73-13.22-2.33-19.22-6.45Zm134.9,154.96c-.07,3.99-.16,7.99,1.05,11.87,1.6,5.11,4.02,7.09,9.25,7.56,6.3,.57,12.4-.13,18.31-2.58,8.31-3.44,16.06-7.84,23.4-13.01,9.57-6.74,18.35-14.41,26.58-22.71,23.85-24.07,44.21-50.86,61.81-79.77,8.65-14.21,16.4-28.89,22.54-44.38,2.65-6.7,4.88-13.53,5.87-20.69,1.08-7.75,.53-15.37-3.27-22.38-4.29-7.92-10.93-12.95-19.95-14.05-7.36-.9-14.67,.05-21.76,2.36-2.62,.85-4.93,2.18-6.92,4.13-5.82,5.7-11.89,11.17-17.53,17.04-26.36,27.43-48.85,57.82-68.37,90.42-8.96,14.96-16.58,30.61-22.55,47.02-4.6,12.66-8.18,25.55-8.47,39.15Z"/><path class="b" d="M973.15,823.26c-.79,1.69-1.62,3.37-2.37,5.09-15.07,34.74-29.88,69.6-45.28,104.19-12.67,28.46-26.05,56.61-39.13,84.89-1.89,4.08-4.16,7.96-7.12,11.34-2.09,2.39-4.49,4.53-6.91,6.6-2.1,1.79-4.69,2.75-7.37,3.32-5.35,1.14-9.8-.35-13.16-4.76-2.28-2.99-3.61-6.37-4.12-10.09-.79-5.76-.26-11.49,.57-17.19,1.31-8.91,4.11-17.38,7.59-25.67,19.67-46.85,39.3-93.71,58.94-140.57,19.21-45.83,38.3-91.7,57.66-137.47,8.53-20.16,17.28-40.23,27.2-59.76,3.26-6.4,6.83-12.65,10.46-18.86,1.52-2.6,3.52-4.94,5.36-7.35,2.07-2.72,4.88-3.41,8.12-2.76,3.65,.72,7.07,2.03,10.14,4.14,5.75,3.96,10.36,9,13.86,15.04,2.22,3.83,3.29,7.94,2.94,12.4-.55,6.85-1,13.71-1.63,20.55-.73,7.96-1.6,15.9-2.39,23.85-1.19,11.93-2.38,23.85-3.54,35.78-.79,8.11-1.55,16.23-2.29,24.35-.84,9.23-1.73,18.46-2.44,27.7-1.36,17.69-2.98,35.37-2.32,53.15,.12,3.35,.53,6.69,.95,10.01,.13,1.05,.71,2.04,1.21,3.38,1.23-.42,2.42-.52,3.19-1.14,1.71-1.41,3.46-2.91,4.75-4.68,2.82-3.87,5.56-7.82,7.99-11.94,7.65-12.95,14.19-26.48,20.33-40.19,13.76-30.78,27.36-61.63,41.19-92.37,4.19-9.32,8.85-18.44,13.44-27.57,1.5-2.99,3.43-5.76,5.24-8.58,1.55-2.41,3.87-3.3,6.63-2.82,1.72,.3,3.47,.69,5.06,1.37,8.47,3.62,15.13,9.43,20.22,17.08,1.93,2.89,2.73,6.04,2.46,9.55-.59,7.65-.98,15.31-1.57,22.96-.78,10.2-1.67,20.39-2.53,30.58-.82,9.71-1.69,19.43-2.5,29.14-.78,9.24-1.51,18.48-2.27,27.72-.85,10.35-1.72,20.71-2.53,31.06-.76,9.72-1.52,19.44-2.19,29.17-.58,8.45-1.03,16.91-1.54,25.37-.45,7.52-.33,15.03,.55,22.5,.24,2.04,.69,4.13,1.47,6.02,2,4.83,6.44,6.9,11.37,5.17,2.53-.88,5.04-2.17,7.15-3.8,3.65-2.83,7.12-5.94,10.42-9.18,2.96-2.91,5.62-6.13,8.37-9.24,3.07-3.48,6.27-6.84,10.01-9.62,2.19-1.63,4.52-3.02,7.19-3.75,4.53-1.24,7.89,.4,9.59,4.79,1.11,2.86,1.45,5.88,1.48,8.94,.07,7.42-1.27,14.64-3.3,21.73-7.18,25.01-19.7,47.07-37.01,66.44-5.44,6.09-11.19,11.87-17.74,16.79-5.66,4.25-11.69,7.81-18.55,9.8-3.24,.94-6.51,1.53-9.9,1.6-7.41,.15-13.33-2.79-17.97-8.46-3.07-3.75-5.18-8.05-6.84-12.58-3.17-8.61-4.7-17.57-5.71-26.65-1.65-14.82-1.63-29.68-1.16-44.54,.35-11.18,.68-22.37,1.3-33.54,.6-10.85,1.56-21.68,2.35-32.52,.39-5.42,.75-10.84,1.1-16.26,.02-.24-.19-.49-.42-1.03-.47,.6-.93,1.02-1.2,1.54-1.02,1.99-1.98,4.01-2.97,6.02-19.6,39.74-41.31,78.3-65.03,115.72-4.87,7.69-10.22,15.08-15.52,22.49-1.94,2.72-4.33,5.12-6.58,7.61-2.17,2.4-4.84,3.38-8.16,3.05-3.69-.38-7.26-1.15-10.73-2.39-6.84-2.45-13-6.11-18.65-10.66-5.07-4.08-8.39-9.15-8.8-15.86-.34-5.58-1.01-11.15-1.09-16.73-.26-19.67,.49-39.31,1.88-58.94,1.34-18.97,2.48-37.96,3.7-56.94,.07-1.1,0-2.21,0-3.31-.3-.06-.6-.13-.89-.19Z"/><path class="b" d="M2106.77,222.3c1.34-1.94,2.62-3.77,3.89-5.61,36.66-53.37,73.32-106.74,109.97-160.12,1.63-2.37,3.2-4.78,4.71-7.23,1.54-2.49,3.64-3.34,6.52-2.77,3.06,.6,5.75,1.85,8.15,3.83,3.93,3.25,5.52,7.76,3.49,13.86-.45,1.36-1.18,2.62-1.8,3.92-24,49.46-48,98.91-71.98,148.37-.75,1.54-1.84,2.98-1.83,4.82,3.72,.58,26.48,.66,31.42,.1,.28-.75,.67-1.6,.9-2.49,4.57-17.65,10.61-34.84,16.2-52.17,10.26-31.79,21.91-63.08,34.53-94.01,3.74-9.18,7.84-18.2,12.69-26.86,1.72-3.06,3.64-6.03,5.7-8.86,1.2-1.65,2.8-3.06,4.36-4.4,1.49-1.28,3.13-1.24,4.85-.12,4.96,3.25,9.72,6.76,14.02,10.85,1.97,1.87,3.81,3.87,5.65,5.88,6.73,7.33,8.6,15.83,5.95,25.37-.68,2.46-1.33,4.95-2.32,7.3-9.64,23.03-17.17,46.78-24.52,70.6-7.25,23.52-13.86,47.22-19.09,71.27-1.9,8.74-3.68,17.53-4.9,26.38-1.42,10.33-1.11,20.74,.64,31.05,.42,2.49,1.24,4.98,2.25,7.3,1.46,3.37,4.19,5.08,7.94,5.18,4.18,.12,7.83-1.33,11.26-3.53,4.33-2.78,8.22-6.12,11.65-9.94,3.84-4.28,7.5-8.72,11.2-13.13,4.62-5.51,9.12-11.13,13.84-16.56,1.98-2.28,4.36-4.22,6.65-6.21,1.08-.93,2.32-1.71,3.58-2.39,4.79-2.59,10.13-.17,11.29,4.3,.76,2.92,1.43,5.9,1.71,8.9,.63,6.93-.77,13.69-2.34,20.39-3.12,13.29-7.99,25.95-14.02,38.16-7.32,14.81-15.86,28.85-26.78,41.34-6.35,7.26-13.38,13.75-21.51,18.98-6.52,4.2-13.54,7.12-21.28,8.27-7.95,1.18-15.25-.36-21.99-4.69-4.63-2.97-8.46-6.82-11.79-11.16-8.3-10.8-13.82-22.95-17.48-36.01-4.34-15.51-5.92-31.37-5.92-47.43,0-2.88-.02-5.75-.05-8.63,0-.15-.12-.29-.29-.68-1.03-.74-2.26-.21-3.44,.07-12.28,2.91-24.55,5.84-36.83,8.77-4.97,1.18-9.93,2.38-15.04,3.6-.88,1.52-1.77,3.03-2.63,4.55-12.6,22.42-27.64,43.02-45.65,61.41-8.86,9.04-18.28,17.44-28.63,24.76-6.94,4.91-14.21,9.22-22.26,12.09-4.4,1.56-8.89,2.55-13.58,2.67-4.18,.1-7.86-1.14-11.17-3.63-3.63-2.73-6.42-6.22-8.86-10-3.85-5.94-6.63-12.4-8.88-19.08-3.89-11.57-6.18-23.47-7.03-35.65-.34-4.78-.63-9.57-.77-14.36-.32-11.19,1.86-21.92,6.14-32.25,4.7-11.35,12.26-20.52,21.69-28.22,11.2-9.15,24.02-15.13,37.82-19.11,11.25-3.24,22.74-5.19,34.42-5.93,6.38-.41,12.76-.73,19.56-1.12Z"/><path class="b" d="M723.88,889.63c-.8-.11-1.28-.31-1.7-.22-17.88,4.18-35.76,8.39-53.87,12.66-.93,1.61-1.88,3.25-2.82,4.91-13.28,23.52-29.19,45.05-48.44,64.07-8.32,8.22-17.12,15.87-26.73,22.56-6.58,4.57-13.46,8.6-21.06,11.29-4.24,1.5-8.56,2.48-13.09,2.72-5.1,.26-9.4-1.43-13.18-4.71-3.3-2.86-5.9-6.28-8.17-9.98-3.71-6.03-6.4-12.51-8.59-19.21-3.84-11.76-6-23.85-6.79-36.18-.26-3.99-.53-7.98-.59-11.97-.4-26.45,9.68-47.83,31.05-63.67,11.47-8.5,24.36-13.93,38.08-17.54,13.99-3.68,28.28-5.15,42.69-5.69,2.39-.09,4.79-.01,7.26-.01,.86-1.1,1.69-2.05,2.4-3.08,36.67-53.36,73.34-106.72,109.99-160.09,2.26-3.29,4.48-6.62,6.59-10.01,1.55-2.5,3.61-3.4,6.48-2.92,2.92,.49,5.49,1.65,7.81,3.44,4.14,3.18,6.22,7.66,3.84,14.57-.62,1.8-1.58,3.49-2.41,5.22-23.72,48.87-47.45,97.75-71.17,146.62-.75,1.54-1.39,3.14-2.05,4.65,.53,.34,.79,.64,1.04,.64,9.6,.04,19.19,.07,28.79,.06,.61,0,1.22-.23,1.95-.37,1.32-4.68,2.52-9.3,3.92-13.85,11.6-37.56,23.9-74.87,38.27-111.48,5.25-13.39,10.34-26.84,16.65-39.78,2.38-4.88,5-9.64,7.68-14.36,1.26-2.21,2.86-4.23,4.43-6.25,.77-1,1.74-1.89,2.74-2.66,2.19-1.69,3.35-1.84,5.63-.23,3.91,2.76,7.79,5.6,11.49,8.64,3.71,3.04,7.06,6.5,9.89,10.4,2.28,3.13,4.02,6.51,4.78,10.36,.86,4.36,0,8.61-.94,12.81-.56,2.48-1.36,4.94-2.34,7.29-8.02,19.02-14.42,38.61-20.66,58.25-8.36,26.35-15.93,52.92-22.1,79.88-2.32,10.12-4.66,20.26-5.74,30.6-1.15,11-1.18,22.03,1.4,32.89,.4,1.7,1.01,3.38,1.76,4.95,1.52,3.15,4.11,4.77,7.64,4.88,3.63,.12,6.94-.91,10.04-2.71,4.04-2.35,7.71-5.21,10.87-8.61,4.45-4.81,8.71-9.79,12.95-14.78,4.97-5.84,9.77-11.83,14.79-17.63,1.77-2.04,3.87-3.82,5.97-5.53,1.34-1.1,2.87-2.06,4.46-2.76,4.31-1.91,8.6-.34,10.26,4.02,1.01,2.65,1.58,5.53,1.88,8.36,.78,7.41-.58,14.65-2.31,21.82-3.58,14.84-9.24,28.89-16.28,42.4-6.52,12.51-13.94,24.43-23.12,35.2-6.15,7.21-12.91,13.76-20.74,19.14-6.93,4.76-14.39,8.21-22.78,9.58-8.84,1.45-16.82-.41-24.07-5.58-3.8-2.71-7.05-6.01-9.93-9.68-7.81-9.94-13.16-21.13-16.89-33.13-3.19-10.26-5.01-20.79-6.04-31.48-.8-8.29-.9-16.6-.9-24.91,0-1.26,0-2.51,0-3.79Z"/><path class="b" d="M2062.77,837.35c4.59,.58,27.69,.57,31.88,.03,.31-.93,.71-1.94,.98-3,4.32-16.55,9.95-32.7,15.19-48.97,10.28-31.95,21.91-63.42,34.52-94.52,3.78-9.33,7.85-18.55,12.69-27.39,1.84-3.36,3.9-6.61,6.06-9.77,1.16-1.69,2.63-3.23,4.19-4.58,2.28-1.97,3.45-2,6.02-.32,5.09,3.33,9.98,6.96,14.28,11.28,2.25,2.26,4.41,4.63,6.46,7.08,5.45,6.53,6.55,14.06,4.7,22.12-.68,2.95-1.48,5.92-2.65,8.7-8.74,20.8-15.65,42.24-22.39,63.73-8.03,25.62-15.32,51.44-21.11,77.67-1.89,8.58-3.6,17.21-4.88,25.89-1.55,10.49-1.19,21.05,.52,31.52,.38,2.35,1.06,4.69,1.94,6.9,1.73,4.37,4.59,6.06,9.34,5.96,3.47-.08,6.55-1.31,9.46-3.07,3.72-2.24,7.14-4.9,10.08-8.08,4.34-4.69,8.54-9.51,12.67-14.39,3.92-4.64,7.54-9.53,11.52-14.12,2.71-3.13,5.72-6.03,8.77-8.84,1.5-1.39,3.31-2.55,5.16-3.43,4.43-2.11,8.94-.44,10.58,4.15,1.06,2.97,1.61,6.19,1.91,9.34,.64,6.77-.75,13.37-2.28,19.92-4.07,17.41-11.05,33.66-19.72,49.23-6.39,11.49-13.66,22.37-22.51,32.15-5.92,6.55-12.41,12.46-19.84,17.28-6.51,4.21-13.49,7.21-21.22,8.43-8.48,1.34-16.19-.37-23.24-5.21-4.4-3.02-8.05-6.8-11.27-11.02-7.94-10.45-13.3-22.17-16.91-34.71-3.47-12.03-5.28-24.35-5.83-36.85-.27-6.07-.21-12.15-.3-18.22-.01-.78,0-1.56,0-2.61-.99-.06-1.77-.28-2.46-.12-17.41,4.12-34.81,8.27-52.21,12.43-.3,.07-.57,.27-1.16,.56-.73,1.26-1.62,2.77-2.48,4.29-14.22,25.23-31.46,48.15-52.52,68.11-7.55,7.16-15.52,13.83-24.15,19.67-6.24,4.22-12.76,7.93-19.9,10.43-4.24,1.49-8.58,2.45-13.11,2.63-4.73,.19-8.79-1.3-12.39-4.25-3.38-2.77-6.03-6.16-8.34-9.84-4.81-7.65-8.02-15.99-10.44-24.63-4.66-16.6-6.69-33.6-5.73-50.76,1.22-21.66,10.36-39.63,27.29-53.46,11.33-9.25,24.25-15.35,38.22-19.37,11.25-3.24,22.74-5.18,34.42-5.92,6.38-.41,12.76-.73,19.36-1.1,.56-.76,1.25-1.62,1.88-2.53,37.65-54.82,75.3-109.63,112.94-164.46,1.45-2.11,2.8-4.28,4.19-6.42,1.27-1.95,3.07-2.7,5.35-2.42,4.68,.57,8.52,2.69,11.35,6.45,2.52,3.36,2.51,7.14,1.3,10.96-.43,1.36-1.16,2.63-1.78,3.92-23.92,49.31-47.84,98.62-71.75,147.94-.83,1.7-1.6,3.44-2.61,5.63Z"/><path class="b" d="M420.21,643.81c.63-.23,1.1-.34,1.52-.56,5.87-3.14,12.15-3.68,18.64-2.96,7.86,.87,15.36,2.98,22.45,6.47,22.2,10.91,38.91,27.17,48.53,50.2,5.18,12.4,7.32,25.4,7.54,38.8,.35,20.72-3.73,40.66-10.49,60.11-9.55,27.5-23.12,52.96-39.59,76.9-22.46,32.65-49.34,61.16-80.88,85.19-15.96,12.16-33.15,22.23-51.9,29.54-12.33,4.8-25.03,7.65-38.28,7.89-12.71,.23-24.27-3.05-34.39-11.06-10.28-8.14-17.61-18.42-22.94-30.26-4.83-10.73-7.59-22.03-8.81-33.7-.5-4.76-.81-9.55-.93-14.34-.41-15.63,2.46-30.85,6.16-45.93,5.97-24.29,14.62-47.62,25.21-70.24,16.91-36.13,36.85-70.51,60.59-102.61,13.51-18.26,27.7-35.98,44-51.88,5.14-5.02,10.67-9.64,16.12-14.33,1.8-1.55,3.89-2.79,5.87-4.13,1.77-1.19,3.64-1.23,5.42-.11,1.61,1.01,3.24,2.07,4.64,3.34,7.23,6.57,13.87,13.7,19.74,21.53,.56,.75,1.2,1.44,1.79,2.14Zm-133.48,259.01c.42,3.63,.51,7.34,1.34,10.88,1.32,5.64,4.05,7.6,9.79,8.08,6.5,.54,12.71-.38,18.72-2.97,7.96-3.43,15.45-7.65,22.51-12.65,11.39-8.06,21.66-17.42,31.27-27.5,20.92-21.94,39.14-45.97,55.13-71.7,8.95-14.4,16.95-29.31,23.46-44.98,3.01-7.24,5.58-14.64,6.79-22.41,1.02-6.55,.69-13.02-1.35-19.41-3.21-10.05-14.22-18.72-25.54-18.28-6.26,.24-12.43,.74-18.38,2.85-2.29,.82-4.35,1.92-6.12,3.63-4.14,3.99-8.46,7.8-12.52,11.87-27.92,27.98-51.47,59.35-72.01,93.03-10.68,17.5-19.63,35.85-26.16,55.33-3.72,11.11-6.42,22.41-6.94,34.24Z"/><path class="b" d="M466.25,28.07c8.87-5.26,17.88-4.52,26.96-2.64,9.68,2,18.43,6.23,26.68,11.54,19.68,12.67,33.44,29.92,40.41,52.39,3.78,12.2,4.85,24.72,4.5,37.42-.44,15.94-3.57,31.39-8.28,46.56-6.67,21.47-16.28,41.63-27.53,61.03-15.23,26.26-33.63,50.13-54.85,71.84-15.23,15.58-31.41,30.05-49.42,42.39-15.23,10.43-31.32,19.2-48.85,25.14-12.84,4.35-26.03,6.43-39.63,5.34-8.8-.7-16.84-3.55-24.06-8.64-8.08-5.69-14.71-12.76-19.89-21.17-7.05-11.44-11.4-23.87-13.67-37.08-1.69-9.81-2.26-19.67-1.92-29.6,.36-10.58,2.13-20.96,4.41-31.27,6.34-28.69,16.56-56.02,29.24-82.46,15.23-31.76,32.82-62.16,53.32-90.83,12.75-17.82,26.37-34.96,41.37-50.97,7.22-7.71,14.85-14.99,23.13-21.56,2.12-1.68,4.41-3.16,6.67-4.66,1.61-1.07,3.37-1.07,4.99-.09,1.63,.99,3.27,2.03,4.67,3.3,7.33,6.7,14.14,13.88,20.04,21.89,.46,.63,.98,1.22,1.72,2.14Zm-133.23,259.59c0,2.74-.15,6.59,.98,10.32,1.63,5.36,4.07,7.31,9.56,7.81,6.49,.6,12.73-.29,18.74-2.87,6.48-2.78,12.67-6.06,18.57-9.93,12.77-8.38,24.06-18.49,34.61-29.46,19.12-19.87,35.92-41.58,50.96-64.67,10.13-15.55,19.21-31.68,26.69-48.69,3.15-7.17,5.9-14.49,7.7-22.14,1.64-6.94,2.02-13.89,.39-20.89-2.59-11.14-12.11-20.04-22.84-21.03-7.23-.67-14.36,.14-21.3,2.35-2.61,.83-4.97,2.09-6.97,4.05-5.71,5.59-11.67,10.93-17.21,16.68-26.29,27.28-48.74,57.5-68.25,89.92-10.16,16.87-18.69,34.54-24.97,53.25-3.72,11.1-6.47,22.4-6.67,35.28Z"/><path class="b" d="M721.23,264.95c-.73,1.37-1.48,2.73-2.18,4.12-9.36,18.38-19.09,36.55-30.25,53.92-5.79,9.02-11.94,17.79-19.08,25.81-5.76,6.47-11.99,12.43-19.08,17.43-7.38,5.2-15.32,9.24-24.2,11.19-2.65,.58-5.34,1.03-8.03,1.34-10.01,1.13-18.57-2.11-25.91-8.84-4.03-3.69-7.46-7.89-10.49-12.44-7.29-10.93-11.91-22.93-14.38-35.79-2.55-13.3-2.56-26.7-1.5-40.13,2.49-31.72,10.07-62.41,19.12-92.77,9.55-32.02,21.16-63.32,33.6-94.33,6.85-17.06,14.06-33.95,22.29-50.39,1-2,2-4.01,3.13-5.93,1.98-3.36,4.28-4.27,8.09-3.12,1.66,.5,3.34,1.21,4.75,2.19,2.09,1.45,4.15,3.04,5.86,4.9,7.87,8.56,13.98,18.23,17.93,29.22,2.88,8,3.36,16.2,2.29,24.58-1.49,11.64-4.74,22.82-8.73,33.8-4.76,13.08-10.57,25.71-16.35,38.35-6.12,13.37-12.11,26.79-17.05,40.65-3.81,10.71-6.93,21.6-8.76,32.83-.9,5.52-1.66,11.06-1.46,16.69,.12,3.4,.75,6.68,2.16,9.77,2.46,5.39,5.8,8.22,13.62,6.51,3.01-.66,5.66-2.15,8.26-3.72,7.44-4.51,13.89-10.23,19.88-16.49,7.75-8.11,14.71-16.87,21.2-26,15.86-22.32,30.05-45.67,42.33-70.14,10.46-20.85,20.57-41.88,30.81-62.84,6.1-12.49,12.11-25.03,18.27-37.49,2.33-4.73,4.93-9.32,7.46-13.95,.92-1.68,1.95-3.31,3.05-4.88,2.54-3.63,3.94-3.96,7.46-1.45,1.94,1.38,3.74,3.02,5.35,4.78,7.89,8.56,13.92,18.28,18.05,29.18,2.79,7.35,3.59,14.82,1.86,22.58-3.08,13.76-7.19,27.17-13,40.04-7.04,15.58-14.23,31.09-21.07,46.76-5.63,12.89-10.4,26.11-14.25,39.66-3.25,11.46-4.99,23.12-5.15,34.99-.08,5.74,.12,11.53,1.52,17.15,.5,1.99,1.18,4.02,2.2,5.78,1.83,3.19,4.69,3.77,7.72,1.74,1.45-.97,2.84-2.1,4.04-3.37,2.42-2.55,4.82-5.14,7.02-7.87,14.73-18.32,29.13-36.89,42.24-56.43,3.07-4.58,6.91-8.4,11.61-11.27,1.47-.9,3.15-1.6,4.83-1.97,2.46-.55,4.06,.42,4.89,2.74,.48,1.34,.75,2.77,.94,4.19,1.08,8.01,.52,15.96-1.33,23.8-2.79,11.84-6.46,23.43-11.39,34.55-2.78,6.26-6.02,12.36-9.49,18.28-12.04,20.59-25.28,40.37-40.39,58.86-5.67,6.94-11.58,13.69-18.31,19.62-3.94,3.48-8.07,6.83-12.48,9.69-5.7,3.7-12.1,4.86-18.84,3.21-3.83-.94-7.01-3.06-9.89-5.65-4.95-4.46-8.56-9.89-11.3-15.92-3.33-7.33-5.33-15.07-6.63-22.96-3.01-18.22-3.5-36.57-2.41-54.98,.19-3.18,.32-6.36,.48-9.55-.3-.08-.6-.15-.91-.23Z"/><path class="b" d="M1771.74,856.58c-18.19,2.8-35.54,5.46-52.84,8.12-1.56,1.72-1.78,3.87-2.39,5.8-8.45,27-17.73,53.7-28.05,80.04-3.61,9.22-7.44,18.36-11.18,27.53-1.76,4.31-3.96,8.37-6.66,12.17-10.89,15.31-27.27,17.04-41.26,11.12-7.38-3.12-13.22-8.3-17.88-14.8-2.73-3.81-3.75-7.97-3-12.69,.78-4.98,2.37-9.61,4.96-13.9,15.5-25.63,28.41-52.55,40.22-80.03,.63-1.47,1.21-2.96,1.77-4.45,.09-.24-.08-.58-.17-1.13-2.49,.3-5,.56-7.5,.92-3.01,.43-5.98,1.09-9,1.38-2.69,.26-5.45,.45-8.13,.16-6.21-.66-10.75-3.87-13.15-9.74-.78-1.91-1.35-3.93-1.82-5.94-2.09-8.95-2.54-18.03-1.94-27.16,.3-4.5,1.46-8.8,3.43-12.89,1.66-3.44,4.3-5.41,8-6.2,9.37-2,18.73-4.04,28.07-6.15,9.97-2.25,19.91-4.6,30.1-6.96,.61-1.62,1.28-3.21,1.83-4.85,9.72-29.26,19.4-58.53,29.17-87.77,3.14-9.39,6.39-18.75,9.79-28.05,2.25-6.16,4.9-12.18,8.59-17.63,1.96-2.9,4.17-5.66,6.49-8.28,1.92-2.16,4.36-3.73,7.14-4.69,3.77-1.3,7.37-.86,10.43,1.61,6.09,4.91,10.03,11.12,10.46,19.16,.29,5.47-.56,10.84-1.45,16.2-2.05,12.31-5.28,24.35-8.43,36.4-5.22,19.93-10.48,39.86-15.7,59.79-.36,1.36-.6,2.75-.85,3.93,.3,.33,.38,.49,.51,.56,.13,.07,.31,.09,.46,.06,19.28-4.47,38.57-8.95,58.09-13.48,.67-1.66,1.34-3.26,1.95-4.89,9.6-25.4,19.09-50.85,28.83-76.2,5.96-15.51,12.61-30.75,20-45.65,.92-1.86,1.98-3.66,2.84-5.54,4.28-9.33,11.38-16.1,19.72-21.74,1.71-1.16,3.53-2.22,5.44-3.01,6.13-2.54,10.84-.1,12.32,6.3,1.24,5.35,1.57,10.8,.56,16.19-1.05,5.64-2.19,11.31-3.88,16.79-7.51,24.26-15.22,48.46-22.88,72.68-3.47,10.97-6.99,21.92-10.48,32.88-.34,1.06-.62,2.14-.99,3.45,.85,.47,1.6,1.07,2.45,1.32,5.17,1.53,8.38,5.03,10.27,9.94,2.14,5.56,3.33,11.33,3.95,17.23,1.8,17.11,1.05,34.16-1.11,51.18-.02,.16-.03,.32-.06,.48-.74,4.64-3.6,6.44-8.27,5.09-9.64-2.8-19.54-3.03-29.46-2.94-.3,0-.6,.19-1.15,.38-.38,1.2-.87,2.53-1.22,3.9-7.14,28.19-13.7,56.52-18.89,85.14-2.99,16.5-5.38,33.11-7.99,49.68-.72,4.6-1.76,9.09-3.56,13.39-4.75,11.42-13.44,17.59-25.59,18.88-5.09,.54-10.22,.41-15.26-.8-8.79-2.1-15.24-7.09-19.16-15.28-3.86-8.07-4.76-16.49-3.18-25.25,1.85-10.24,4.72-20.23,7.83-30.13,9.03-28.81,18.2-57.57,27.3-86.36,.48-1.51,.9-3.04,1.56-5.31Z"/><path class="b" d="M1247.95,241.42c-.47-.24-.77-.53-1.02-.5-17.22,2.56-34.43,5.15-51.51,7.71-1.47,1.48-1.67,3.29-2.18,4.93-6.53,20.72-13.33,41.36-21.05,61.67-5.91,15.53-12.14,30.93-18.27,46.37-1.83,4.62-4.18,8.98-7.11,13.01-10.17,13.97-25.15,16.6-39.18,11.51-8.22-2.98-14.53-8.53-19.71-15.47-3.3-4.43-3.77-9.4-2.75-14.61,.9-4.59,2.71-8.84,5.13-12.84,7.88-12.99,15.21-26.29,21.72-40.01,6.44-13.56,12.56-27.28,18.75-40.96,.49-1.07,1.49-2.16,.65-3.82-2.4,.29-4.91,.55-7.4,.91-3,.43-5.99,1.06-9,1.38-2.37,.26-4.8,.4-7.17,.22-7.05-.54-12.04-4.09-14.34-10.86-1.07-3.16-1.82-6.47-2.35-9.76-1.34-8.39-1.97-16.82-.66-25.3,.52-3.35,1.55-6.5,2.92-9.59,1.63-3.66,4.4-5.7,8.27-6.56,17.77-3.94,35.53-7.93,53.3-11.92,1.55-.35,3.08-.8,4.9-1.28,.56-1.56,1.18-3.19,1.73-4.84,11.19-33.65,22.33-67.31,33.6-100.93,2.33-6.96,4.91-13.86,7.79-20.61,1.93-4.53,4.39-8.88,6.99-13.08,1.66-2.69,3.92-5.03,6.08-7.38,1.06-1.16,2.41-2.11,3.77-2.93,5.35-3.2,10.4-2.79,14.94,1.51,5.95,5.64,9.49,12.48,8.84,20.9-.4,5.25-1,10.5-1.9,15.69-2.54,14.66-6.72,28.93-10.44,43.31-4.44,17.16-8.98,34.3-13.46,51.46-.27,1.03-.35,2.1-.49,2.97,.38,.33,.48,.47,.61,.52,.14,.05,.32,.02,.47-.02,18.97-4.43,37.95-8.87,56.92-13.32,.3-.07,.56-.3,1.13-.63,.66-1.67,1.44-3.58,2.16-5.51,9.25-24.51,18.42-49.05,27.78-73.52,5.82-15.22,12.32-30.17,19.44-44.84,2.16-4.45,4.59-8.78,6.99-13.11,2.03-3.67,4.65-6.89,7.92-9.53,2.98-2.41,5.92-4.89,9.03-7.12,1.8-1.29,3.82-2.36,5.89-3.15,4.45-1.72,9.94-.56,11.47,5.86,.98,4.08,1.3,8.19,1.14,12.36-.25,6.77-1.79,13.3-3.78,19.72-5.66,18.31-11.4,36.6-17.19,54.87-5.45,17.21-10.99,34.39-16.48,51.58-.43,1.36-.81,2.74-1.27,4.33,1.09,.47,2.06,.97,3.09,1.31,4.37,1.45,7.48,4.32,9.16,8.55,1.23,3.11,2.25,6.32,3.05,9.57,1.92,7.81,2.28,15.82,2.4,23.81,.19,12.32-.28,24.61-2.2,36.81-.7,4.47-3.51,6.44-7.78,5.11-7.74-2.41-15.72-2.67-23.7-3.08-2.23-.11-4.47-.02-6.91-.02-.38,.85-.88,1.65-1.1,2.52-6.04,23.69-11.57,47.49-16.39,71.45-3.5,17.39-6.55,34.85-9.22,52.39-.77,5.05-1.28,10.15-2.23,15.17-.68,3.59-1.62,7.19-2.95,10.58-4.56,11.69-13.36,18.02-25.73,19.34-5.09,.54-10.22,.39-15.26-.82-8.58-2.06-15.07-6.83-18.93-14.86-3.61-7.53-5.06-15.37-3.7-23.75,1.67-10.29,4.47-20.29,7.56-30.19,9.18-29.43,18.57-58.79,27.88-88.18,.48-1.51,.9-3.04,1.34-4.51Z"/><path class="b" d="M2529.83,99.3c-4.79-.17-9.05,.5-13.13,1.89-4.22,1.44-8.44,3.02-12.4,5.04-10.63,5.4-20.01,12.56-28.36,21.07-5.25,5.36-8.85,11.7-11.3,18.73-.47,1.35-.8,2.76-1.07,4.17-.76,4.04,.18,7.73,3.08,10.6,2.25,2.23,4.75,4.34,7.47,5.94,4.4,2.58,9.01,4.83,13.63,6.99,13.02,6.09,26.15,11.96,39.13,18.12,10.17,4.83,19.31,11.26,27.61,18.87,1.41,1.3,2.76,2.67,4.12,4.02,9.79,9.75,15.01,21.66,16.81,35.24,1.41,10.68,1.45,21.34,.15,32.03-1.38,11.31-5.36,21.63-11.35,31.28-5.97,9.61-13.58,17.76-22.14,25.06-14.74,12.57-31.41,21.89-49.3,29.15-18.13,7.35-36.85,12.62-56.11,15.98-12.81,2.23-25.73,3-38.7,2.05-11.2-.82-22.17-2.91-32.57-7.39-4.87-2.1-9.41-4.73-13.74-7.77-3.77-2.65-6.69-6.01-8.39-10.25-1.78-4.44-3.59-8.92-4.74-13.54-4.31-17.43-6.97-35.1-6.76-53.11,.04-3.35,.4-6.7,.77-10.03,.21-1.85,1.13-2.61,2.88-2.49,1.41,.1,2.88,.33,4.18,.85,3.56,1.42,7.08,2.93,10.54,4.59,6.77,3.24,13.4,6.8,20.25,9.86,17.2,7.67,35.25,12.36,53.97,14.37,14.68,1.58,29.37,1.57,43.99-.81,9.02-1.47,17.78-3.89,26.12-7.72,3.35-1.54,6.55-3.33,9.39-5.71,1.98-1.66,3.67-3.56,4.69-5.98,1.15-2.72,1.13-5.41-1.01-7.59-2-2.04-4.08-4.14-6.5-5.6-5.46-3.3-11.02-6.49-16.78-9.23-12.69-6.04-25.58-11.66-38.29-17.66-13.29-6.27-26.54-12.64-39.66-19.25-5.12-2.58-9.92-5.81-14.74-8.94-6.78-4.41-11.39-10.58-14.38-18.09-3.52-8.85-5.64-18.02-6.12-27.48-.57-11.19-.24-22.37,1.75-33.45,.85-4.72,1.96-9.37,3.69-13.87,1.34-3.48,3.32-6.48,5.96-9.16,14.23-14.47,30.5-26.25,47.91-36.54,20.83-12.31,42.84-22.13,65.41-30.76,15.83-6.05,31.93-11.24,48.52-14.84,10.18-2.21,20.46-3.56,30.86-4.09,2.22-.11,4.48-.02,6.69,.22,4.42,.48,7.71,2.75,10.06,6.55,3.19,5.17,4.92,10.7,4.7,16.82-.25,6.74-1.35,13.36-3.16,19.84-3.59,12.85-9.54,24.39-19.36,33.65-5.91,5.57-12.63,9.75-20.76,11.32-8.09,1.57-13.71-.76-17.77-7.93-1.8-3.17-2.94-6.71-4.29-10.12-.58-1.47-.91-3.04-1.46-4.9Z"/><path class="b" d="M197.96,99.25c-4.77-.08-9,.64-13.12,1.92-2.89,.9-5.77,1.93-8.52,3.18-12.51,5.71-23.38,13.76-32.88,23.66-5.19,5.4-8.68,11.84-10.89,18.95-.56,1.8-.79,3.74-.91,5.64-.21,3.19,.87,6.08,3.19,8.24,2.33,2.16,4.75,4.36,7.48,5.92,4.98,2.84,10.18,5.35,15.38,7.79,12.58,5.9,25.29,11.53,37.81,17.55,10.88,5.23,20.53,12.28,29.28,20.63,10.34,9.86,16.49,21.74,18.59,35.89,1.92,12.93,1.94,25.81-.47,38.64-2.64,14.02-9.38,26.08-18.43,36.91-8.68,10.39-19.09,18.84-30.38,26.24-15.75,10.33-32.91,17.65-50.71,23.54-14.75,4.88-29.83,8.41-45.21,10.52-15.3,2.1-30.61,2.09-45.84-.74-11.27-2.1-21.82-6.01-31.37-12.52-4.65-3.17-8-7.25-10.17-12.41-2.81-6.66-4.65-13.59-6.06-20.65C1.93,324.01-.17,309.8,.01,295.34c.03-2.72,.13-5.43,.23-8.15,.04-1.12,.11-2.24,.31-3.34,.44-2.44,1.49-3.22,4.05-2.88,1.25,.16,2.52,.5,3.68,.99,3.38,1.42,6.76,2.87,10.07,4.47,6.05,2.91,11.97,6.08,18.07,8.87,17.87,8.16,36.63,13.22,56.16,15.32,14.69,1.57,29.37,1.54,43.99-.82,9.03-1.46,17.78-3.91,26.12-7.72,3.35-1.53,6.55-3.35,9.38-5.74,2.1-1.78,3.81-3.83,4.87-6.42,1.01-2.46,.76-4.75-.93-6.73-1.34-1.57-2.77-3.16-4.44-4.32-3.27-2.28-6.6-4.55-10.16-6.31-9.45-4.67-19.04-9.06-28.56-13.58-18.9-8.98-37.84-17.87-56.66-27.01-5.15-2.5-9.98-5.7-14.89-8.69-9.06-5.51-14.46-13.8-17.62-23.71-3.43-10.75-5.06-21.77-4.6-33.06,.29-7.02,.37-14.06,1.53-21.02,.84-5.05,1.91-10.03,3.58-14.89,1.43-4.16,3.66-7.74,6.78-10.87,10.9-10.9,22.92-20.38,35.79-28.83,19.72-12.93,40.78-23.26,62.52-32.26,17.87-7.4,36.02-13.98,54.81-18.71,12.59-3.17,25.32-5.35,38.29-6,3.03-.15,6.05-.25,9.07,.41,3.29,.73,5.89,2.38,7.82,5.12,3.9,5.54,5.99,11.7,5.56,18.47-.73,11.41-3.23,22.43-8.17,32.82-3.96,8.33-9.13,15.76-16.16,21.8-5.53,4.75-11.69,8.32-18.97,9.73-8.07,1.57-13.6-.83-17.84-7.87-2.08-3.45-3.38-7.22-4.54-11.06-.36-1.21-.71-2.43-1.2-4.07Z"/><path class="b" d="M1539.17,715.46c-3.35-.48-6.33,.11-9.27,.71-5.83,1.2-11.31,3.37-16.57,6.13-9.84,5.17-18.64,11.75-26.62,19.46-5.25,5.08-9.2,11.03-11.86,17.83-.64,1.63-1.14,3.32-1.62,5.01-1.48,5.29-.16,9.87,3.94,13.44,2.4,2.09,4.99,4.05,7.75,5.59,4.46,2.48,9.1,4.66,13.73,6.82,12.45,5.8,25.01,11.38,37.39,17.32,11.62,5.57,21.91,13.08,31.12,22.13,10.5,10.31,16.03,22.87,17.77,37.32,1.17,9.72,1.23,19.42,.18,29.17-1.35,12.5-5.69,23.84-12.49,34.35-6.95,10.74-15.9,19.58-25.88,27.43-13.54,10.65-28.53,18.79-44.46,25.25-18.13,7.36-36.84,12.64-56.1,16.02-12.98,2.27-26.05,3.01-39.18,2.05-11.21-.82-22.16-2.98-32.55-7.48-4.71-2.04-9.1-4.62-13.32-7.55-3.93-2.73-6.87-6.23-8.66-10.63-1.39-3.39-2.69-6.84-3.78-10.34-2.66-8.57-4.12-17.41-5.42-26.26-1.64-11.08-2.64-22.22-2.08-33.45,.1-2.07,.31-4.15,.66-6.19,.4-2.28,1.35-2.96,3.67-2.68,1.25,.15,2.52,.47,3.69,.96,3.54,1.47,7.06,2.97,10.52,4.63,6.05,2.9,11.98,6.06,18.07,8.86,17.72,8.12,36.34,13.11,55.7,15.2,16.46,1.78,32.89,1.6,49.18-1.72,7.85-1.6,15.48-3.95,22.66-7.57,2.13-1.07,4.19-2.33,6.17-3.67,1.31-.89,2.57-1.94,3.61-3.13,5.9-6.77,3.8-10.35-.72-14.33-3.99-3.52-8.59-6.13-13.33-8.46-7.45-3.66-14.96-7.23-22.51-10.69-21.06-9.64-42.16-19.21-62.76-29.81-5.84-3-11.4-6.43-16.67-10.37-5.27-3.93-9.11-8.87-11.76-14.86-3.85-8.72-6.17-17.87-6.79-27.31-.81-12.3-.52-24.61,1.79-36.78,.33-1.73,.71-3.44,1.09-5.16,1.74-7.87,5.55-14.35,11.53-19.96,14.54-13.66,30.54-25.27,47.86-35.05,31.3-17.67,64.29-31.34,98.94-40.92,13.44-3.71,27.11-6.13,41.05-6.88,3.35-.18,6.69-.35,10.02,.44,3.1,.74,5.61,2.31,7.43,4.89,3.5,4.94,5.83,10.39,5.62,16.51-.65,19.61-6.38,37.39-19.65,52.26-4.74,5.31-10.37,9.47-16.98,12.23-3.27,1.37-6.66,2.23-10.2,2.44-5.01,.3-9.03-1.6-12.19-5.44-2.37-2.88-3.97-6.18-5.18-9.67-.89-2.56-1.63-5.16-2.55-8.13Z"/><path class="b" d="M2924.26,715.34c-4.68-.26-8.75,.54-12.74,1.68-2.76,.79-5.49,1.74-8.11,2.92-12.99,5.85-24.27,14.13-34.06,24.45-4.81,5.07-8.03,11.11-10.29,17.68-.41,1.2-.72,2.45-.99,3.7-.92,4.21,.05,8.05,3.05,11.06,2.23,2.24,4.74,4.36,7.47,5.92,4.99,2.84,10.18,5.34,15.38,7.78,12.58,5.9,25.3,11.51,37.81,17.55,11.45,5.54,21.56,13.02,30.63,21.99,10.08,9.97,15.61,22.03,17.45,35.95,1.41,10.67,1.49,21.33,.13,32.02-1.25,9.8-4.31,18.96-9.17,27.55-5.16,9.13-11.69,17.14-19.33,24.29-14.4,13.49-30.99,23.59-49.01,31.4-21.66,9.38-44.2,15.83-67.58,19.1-17.06,2.38-34.12,2.25-51-1.67-9.74-2.27-18.81-6.07-27.06-11.81-4.34-3.02-7.49-6.87-9.59-11.69-2.7-6.19-4.47-12.64-5.85-19.22-2.86-13.63-4.9-27.38-5.2-41.31-.1-4.94,.33-9.89,.74-14.82,.21-2.55,1.31-3.24,3.92-2.9,1.25,.16,2.52,.5,3.68,.98,3.39,1.42,6.75,2.89,10.07,4.45,8.09,3.82,16.01,8.03,24.24,11.49,17.66,7.42,36.11,11.66,55.24,13.14,10.56,.82,21.09,.83,31.61-.29,11.34-1.21,22.36-3.75,32.8-8.48,3.36-1.52,6.59-3.27,9.46-5.61,2.13-1.73,3.95-3.72,5.06-6.29,1.19-2.75,1.04-5.37-1.04-7.58-1.63-1.74-3.36-3.46-5.31-4.81-3.02-2.08-6.14-4.08-9.43-5.67-11.36-5.49-22.83-10.75-34.23-16.16-16.88-8.02-33.77-16.02-50.59-24.16-6.77-3.28-13.17-7.2-19.1-11.87-4.36-3.44-7.69-7.61-10.1-12.59-3.3-6.82-5.52-14.02-6.57-21.46-2.43-17.25-1.79-34.42,2.54-51.37,.43-1.7,1.05-3.35,1.62-5.01,1.28-3.68,3.38-6.8,6.13-9.6,12.51-12.74,26.65-23.39,41.76-32.81,16.72-10.43,34.32-19.12,52.45-26.79,19.43-8.23,39.18-15.55,59.69-20.7,12.74-3.2,25.65-5.37,38.79-5.87,2.69-.1,5.42,.12,8.1,.49,3.33,.46,5.93,2.3,7.83,5.05,3.43,4.98,5.7,10.44,5.49,16.56-.62,18.57-5.95,35.52-17.89,50.06-4.51,5.49-9.93,9.93-16.33,13.12-3.32,1.66-6.81,2.77-10.46,3.34-6.48,1.02-11.61-1.2-15.38-6.56-2.42-3.44-3.91-7.31-5.16-11.29-.52-1.66-.99-3.34-1.57-5.31Z"/><path class="b" d="M2703.28,117.11c-8.15,.11-15.79,.48-23.27,2.39-2.3,.59-4.56,1.51-6.68,2.59-15.28,7.82-29.54,17.21-42.8,28.11-2.21,1.81-4.17,3.95-6.09,6.07-2.75,3.03-5.36,3.63-8.93,1.7-2.16-1.17-3.73-2.98-5.05-5.02-4.36-6.72-5.77-14.09-4.95-21.99,.73-7.09,2.8-13.79,6.07-20.07,2.95-5.67,5.95-11.33,9.36-16.72,6.68-10.52,13.67-20.85,20.52-31.26,2.11-3.2,4.3-6.36,6.25-9.66,1.62-2.74,3.2-5.57,4.32-8.54,3.04-8.08,8.6-13.79,16.2-17.5,10.43-5.1,21.45-7.3,33.05-5.7,8.39,1.16,16.74,2.59,25.12,3.79,13.13,1.88,26.26,3.71,39.41,5.46,11.57,1.55,23.18,2.82,34.86,2.92,7.19,.06,14.39-.01,21.58-.25,2.52-.08,5.05-.71,7.52-1.32,3.41-.85,6.74-2,10.14-2.86,1.85-.46,3.77-.77,5.67-.83,4.71-.13,7.48,2.02,8.64,6.63,.35,1.38,.41,2.84,.47,4.27,.27,5.82-.8,11.49-2.47,17-1.85,6.11-3.82,12.21-6.27,18.1-3.31,7.96-6.92,15.81-10.78,23.51-3.31,6.6-7.76,12.48-13.14,17.6-3.5,3.33-7.39,6.09-11.69,8.3-3.81,1.96-7.8,2.82-12.06,2.21-6.01-.85-12.01-1.79-18.03-2.6-6.81-.92-13.63-1.78-20.45-2.6-4.11-.49-8.25-.86-12.11-1.26-1.91,1.23-2.4,3-3.2,4.52-12.63,23.73-23.5,48.26-32.81,73.47-5.48,14.84-10.58,29.8-14.79,45.06-3.23,11.7-2.02,23.19,1.67,34.43,3.96,12.04,14.07,18.82,27.04,19.24,14.97,.48,29.21-2.67,42.81-8.83,6.86-3.1,13.42-6.73,19.63-10.99,9.38-6.44,18.54-13.18,26.37-21.44,3.94-4.15,8.32-3.56,11.62,.83,5.43,7.23,6.34,15.14,4.02,23.64-.93,3.42-2.38,6.61-4.23,9.62-12.02,19.54-25.64,37.84-42.22,53.81-14.88,14.34-31.5,26.09-50.9,33.56-19.54,7.53-39.78,10.58-60.67,9.01-6.88-.52-13.6-1.88-19.95-4.75-10.01-4.52-17.46-11.63-22.2-21.58-3.4-7.14-5.42-14.67-6.53-22.46-1.84-12.88-1.88-25.82-.86-38.75,.83-10.42,3.58-20.46,7.21-30.21,2.9-7.78,6.18-15.42,9.36-23.09,2.81-6.79,5.67-13.56,8.6-20.29,2.29-5.27,4.55-10.57,7.13-15.7,14.61-29.14,30.02-57.87,46.16-86.2,.85-1.49,1.99-2.88,2.29-5.36Z"/><path class="b" d="M939.23,117.56c-.12-.08-.23-.24-.35-.24-8.19-.23-16.29,.38-24.19,2.63-1.83,.52-3.58,1.38-5.28,2.24-14.44,7.34-27.89,16.24-40.58,26.29-3,2.38-5.91,4.85-8.33,7.9-2.42,3.05-5.02,3.46-8.5,1.73-2.21-1.1-3.79-2.89-5.15-4.91-3.88-5.77-5.48-12.17-5.26-19.08,.21-6.96,1.73-13.65,4.69-19.93,2.38-5.05,4.81-10.13,7.77-14.85,7.39-11.78,15.09-23.36,22.67-35.01,2.35-3.62,4.86-7.14,7.06-10.84,1.71-2.87,3.29-5.87,4.52-8.97,3.02-7.66,8.22-13.25,15.49-16.93,10.69-5.42,21.98-7.69,33.91-6.03,8.54,1.19,17.05,2.67,25.59,3.89,12.81,1.83,25.63,3.63,38.47,5.29,7.61,.98,15.24,1.9,22.89,2.39,7.65,.5,15.34,.71,23.01,.57,15.65-.28,11.61,.57,25.9-3.77,2.58-.78,5.3-1.3,7.99-1.46,5.13-.31,8.14,2.21,9.04,7.26,.8,4.47,.35,8.93-.44,13.35-1.38,7.74-3.76,15.2-6.75,22.45-3.04,7.38-6.24,14.71-9.63,21.94-3.33,7.12-7.57,13.7-12.95,19.5-4.06,4.38-8.68,8-13.99,10.76-3.95,2.05-8.08,2.96-12.51,2.32-6.01-.87-12.01-1.81-18.03-2.62-6.65-.9-13.31-1.74-19.97-2.54-3.65-.44-7.31-.76-10.97-1.11-.63-.06-1.26,0-2.2,0-.99,1.79-2.01,3.58-2.97,5.39-15.72,29.73-28.71,60.63-39.31,92.53-2.87,8.64-5.35,17.4-8.01,26.11-1.37,4.48-1.83,9.06-1.53,13.73,.4,6.24,1.07,12.43,3.01,18.4,3.07,9.43,9.11,16.07,18.76,18.91,3.03,.89,6.27,1.33,9.43,1.43,13.96,.46,27.31-2.39,40.11-7.91,7.8-3.37,15.23-7.4,22.22-12.24,9.21-6.39,18.08-13.19,26.02-21.15,.56-.57,1.14-1.13,1.76-1.62,1.94-1.54,4.6-1.72,6.66-.25,1.15,.82,2.21,1.86,3.08,2.98,4.55,5.91,5.97,12.61,4.74,19.91-.75,4.46-2.31,8.65-4.67,12.51-12.64,20.68-27.06,39.97-44.84,56.58-13.54,12.65-28.53,23.16-45.75,30.25-20.29,8.36-41.42,11.79-63.31,10.21-7.53-.54-14.84-2.11-21.71-5.47-9.41-4.61-16.34-11.61-20.81-21.06-3.66-7.74-5.63-15.94-6.72-24.39-1.42-10.98-1.41-22.01-.85-33.03,.57-11.27,3.24-22.13,7.1-32.67,2.97-8.09,6.38-16.02,9.68-23.99,2.81-6.79,5.83-13.49,8.57-20.31,2.87-7.12,6.22-14.01,9.68-20.86,13.93-27.53,28.6-54.65,43.82-81.48,.71-1.25,1.35-2.53,1.97-3.83,.11-.23-.04-.59-.07-.9Z"/><path class="b" d="M2374.81,718.77c-1.79,5.9-3.56,11.7-5.32,17.5-7.99,26.29-15.93,52.58-22.96,79.15-9.04,34.14-17.07,68.51-23.29,103.27-2.67,14.93-4.74,29.98-7.06,44.98-.66,4.27-1.52,8.5-3.05,12.55-4.24,11.23-12.06,18.25-24.1,20.12-6.71,1.04-13.38,.81-19.92-1.22-7.42-2.3-12.81-6.97-16.36-13.84-4.37-8.47-5.02-17.37-3.23-26.59,1.95-10.05,4.7-19.9,7.75-29.66,9.19-29.42,18.38-58.85,27.86-88.18,10.22-31.61,21.25-62.96,32.46-94.23,.53-1.48,1-2.98,1.45-4.33-.69-.89-1.35-.55-1.87-.3-15.03,7.34-29.03,16.17-40.8,28.23-4.72,4.84-8.85,10.08-11.86,16.17-1.2,2.43-2.53,4.81-3.86,7.18-.63,1.11-1.33,2.19-2.13,3.18-3.59,4.44-9.01,4.59-12.79,.29-2.62-2.98-3.87-6.63-4.22-10.51-.21-2.36-.19-4.82,.21-7.16,4.38-25.69,10.16-51.07,17.83-75.98,1.41-4.57,3.14-9.05,4.7-13.58,1.41-4.11,4.09-7.08,7.74-9.41,6.09-3.89,12.56-6.99,19.3-9.55,12.59-4.77,25.6-7.98,38.78-10.61,16.63-3.32,33.4-5.69,50.26-7.37,16.23-1.62,32.52-2.43,48.85-2.26,5.96,.06,11.28,2.01,16.24,5.11,4.51,2.82,8.34,6.44,11.82,10.44,9.49,10.91,15.98,23.46,20.21,37.22,4.12,13.39,5.74,27.13,6.11,41.11,.69,26.23-6.65,50.14-20.25,72.33-8.57,13.99-19.06,26.43-30.7,37.93-9.45,9.34-19.35,18.17-30.16,25.93-7.02,5.04-14.33,9.63-22.17,13.3-2.16,1.02-4.42,1.85-6.65,2.71-4.22,1.63-8.4,1.4-12.64-.08-12.86-4.48-20.03-16.86-17.52-30.39,1.03-5.59,3.3-10.66,6.36-15.41,3.22-5.01,7.23-9.34,11.4-13.56,11.46-11.6,23.02-23.11,34.31-34.87,6.19-6.45,12.01-13.27,17.81-20.08,4.6-5.4,7.87-11.62,10.31-18.28,1.73-4.73,2.35-9.6,1.9-14.61-.68-7.57-2.47-14.81-6.31-21.43-.96-1.65-2.05-3.25-3.22-4.75-2.62-3.36-5.98-4.94-10.4-4.8-9.79,.32-19.41,1.72-28.98,3.63-.46,.09-.88,.35-1.81,.73Z"/><path class="b" d="M2560.37,794.36c-.32-.57-.42-.9-.63-1.09-7.96-7.2-11.94-16.49-13.76-26.79-2.6-14.79-1.49-29.31,4.04-43.36,4.77-12.15,12.47-22.25,22.08-30.96,10.05-9.11,21.57-15.93,33.88-21.47,14.34-6.46,29.32-10.93,44.63-14.34,13.27-2.95,26.67-5.15,40.21-6.45,4.45-.43,8.91-.66,13.36,.34,5.23,1.17,9.01,4.09,11.11,8.95,1.2,2.77,2.2,5.69,2.75,8.65,1.32,7.1,1.72,14.26,.49,21.46-2.24,13.15-9.12,22.77-21.63,27.74-12.57,5-25.5,5.76-38.48,1.56-6.14-1.98-11.79-4.94-16.19-9.87-.3-.34-.77-.54-1.39-.95-4.86,2.64-9.4,5.86-13.66,9.48-3.8,3.21-7.21,6.79-10.08,10.88-4.36,6.2-6.65,13.14-6.87,20.64-.19,6.48,1.29,12.69,4.64,18.36,2.6,4.41,6.39,7.52,10.88,9.83,4.73,2.43,9.78,3.92,14.98,4.91,2.51,.48,5.04,.85,7.59,1.11,5.79,.59,9.72,3.56,12.13,8.83,2.7,5.9,3.12,12.05,2.13,18.3-.65,4.13-2.94,7.49-6.75,9.4-2.98,1.49-6.11,2.75-9.29,3.75-22.18,6.97-43.48,15.96-63.61,27.62-5.94,3.44-11.75,7.14-17.37,11.09-3.77,2.65-7.18,5.85-10.55,9.02-1.72,1.62-3.11,3.64-4.43,5.63-1.54,2.34-1.89,4.93-1.57,7.79,1.62,14.43,11.56,24.85,26.88,28.03,20.89,4.33,41.3,2.69,61.19-5.21,12.39-4.92,24.08-11.14,34.99-18.75,7.34-5.12,14.37-10.67,21.56-16,1.53-1.14,3.09-2.32,4.81-3.11,4.34-2,8.28-.78,10.66,3.4,1.09,1.91,1.89,4.08,2.38,6.23,1.91,8.29,1.45,16.48-1.31,24.56-2.73,7.95-6.97,15.06-11.94,21.77-6.4,8.65-13.88,16.31-21.72,23.63-18.39,17.18-38.88,31.17-62.29,40.66-10.68,4.33-21.59,7.96-33.05,9.59-7.13,1.02-14.32,1.45-21.53,1.24-11.88-.34-23.56-1.94-34.92-5.56-17.8-5.68-30.53-16.95-37.7-34.29-1.4-3.39-2.67-6.84-3.86-10.32-2.65-7.76-3.65-15.86-4.69-23.94-.43-3.33-.78-6.67-.92-10.02-.99-23.42,5.31-44.86,17.79-64.58,9.62-15.18,22.03-27.74,36.25-38.61,8.01-6.13,16.49-11.55,25.25-16.55,1.21-.69,2.37-1.47,3.53-2.2Z"/><path class="b" d="M61.71,865.95c-1.45-.29-2.67-.57-3.91-.77-3.6-.59-6.06-2.66-7.8-5.76-1.82-3.25-3.02-6.74-3.49-10.4-.83-6.39-.6-12.77,.97-19.05,.74-2.97,2.14-5.65,3.88-8.18,2.63-3.82,6.22-5.87,10.81-6.23,3.83-.3,7.65-.59,11.48-.86,1.59-.11,3.19-.15,5.01-.23,.45-.97,.99-1.91,1.35-2.92,9.18-26.07,18.35-52.14,27.5-78.22,.31-.88,.48-1.8,.79-2.98-1,0-1.79-.12-2.53,.02-27.84,5.11-49.64,19.48-65.57,42.84-1.17,1.71-2.44,3.36-3.84,4.88-1.69,1.84-3.79,2.12-6.14,1.21-2.2-.85-3.75-2.41-5.07-4.24-2.89-4-4.32-8.53-4.6-13.42-.29-5,.3-9.93,1.91-14.66,6.3-18.48,13.57-36.55,23.19-53.59,4.25-7.53,9.01-14.72,14.62-21.33,3.53-4.16,7.37-7.99,11.7-11.32,8.22-6.32,17.47-9.87,27.84-10.44,1.76-.1,3.51-.17,5.27-.19,16.47-.22,32.94-.27,49.41-.68,14.87-.37,29.72-1.1,44.54-2.51,7.8-.74,15.61-1.33,23.41-2.1,2.37-.23,4.73-.72,7.05-1.3,3.56-.9,7.05-2.08,10.62-2.95,1.84-.44,3.78-.63,5.68-.63,3.6,.01,6.06,1.89,7.19,5.28,.5,1.49,.74,3.11,.83,4.68,.31,5.15-.44,10.21-1.57,15.21-2.88,12.66-7.22,24.85-12.31,36.76-2.58,6.05-5.97,11.66-10.21,16.73-4.15,4.97-9.11,8.9-14.76,12.07-6.62,3.73-13.57,4.58-20.85,2.84-9.05-2.17-18.24-3.28-27.48-4.1-2.68-.24-5.39-.04-8.39-.04-2.03,5.27-3.34,10.86-5.06,16.3-1.68,5.33-3.21,10.71-4.79,16.08-1.63,5.52-3.25,11.03-4.85,16.56-1.55,5.37-3.13,10.74-4.59,16.13-1.5,5.5-3.3,10.93-4.48,16.85,2.06,0,3.63,.04,5.2,0,6.07-.19,12.14-.51,18.21-.6,5.8-.09,11.42-1.36,17.1-2.23,4.26-.65,8.49-1.53,12.74-2.29,.63-.11,1.26-.21,1.9-.25,4.05-.29,5.51,.56,6.62,4.57,.85,3.06,1.59,6.23,1.76,9.39,.72,13.17-.31,26.2-3.85,38.95-.68,2.46-1.46,4.9-2.42,7.27-2.54,6.29-7.14,10.48-13.5,12.76-6.17,2.21-12.53,2.39-18.94,1.46-11.7-1.7-23.39-3.52-35.09-5.2-1.68-.24-3.42-.8-5.37-.18-.4,1.52-.87,3.02-1.2,4.56-4.96,23.12-9.48,46.33-12.86,69.75-.87,6.01-1.67,12.03-2.75,18.01-.56,3.13-1.44,6.23-2.54,9.22-4.32,11.73-12.79,18.47-25.18,20.08-5.74,.75-11.51,.55-17.15-.95-8.35-2.23-14.58-7.18-18.26-15.04-3.32-7.09-4.69-14.5-3.48-22.39,1.07-6.98,2.71-13.8,4.73-20.53,5.64-18.82,11.44-37.6,17.19-56.39,1.26-4.12,2.57-8.23,3.82-12.36,.27-.88,.35-1.81,.57-2.94Z"/></svg>